<?xml version="1.0" encoding="utf-8"?>
<!-- Generator: Adobe Illustrator 25.4.1, SVG Export Plug-In . SVG Version: 6.00 Build 0)  -->
<svg version="1.1" xmlns="http://www.w3.org/2000/svg" xmlns:xlink="http://www.w3.org/1999/xlink" x="0px" y="0px"
	 viewBox="0 0 1280 1280" style="enable-background:new 0 0 1280 1280;" xml:space="preserve">
<style type="text/css">
	.st0{fill:#FFFFFF;}
	.st1{fill:#B0AFB3;}
	.st2{fill:#B3B3B5;}
	.st3{fill:#1A1A72;}
	.st4{fill:#FBFBFB;}
	.st5{fill:#9A999F;}
	.st6{fill:#B1B0B5;}
	.st7{fill:#9F9EA3;}
	.st8{fill:#7C7C7C;}
	.st9{fill:#515154;}
	.st10{fill:#004225;}
	.st11{fill:#941C2F;}
	.st12{fill:#AAAAAC;}
	.st13{fill:#A1A0A5;}
	.st14{fill:#A7A7AC;}
	.st15{fill:#818087;}
	.st16{fill:#A6A5AB;}
	.st17{fill:#A7A6AB;}
	.st18{fill:#A5A5A6;}
	.st19{fill:#69696A;}
	.st20{fill:#535255;}
	.st21{fill:#A9A8AD;}
	.st22{fill:#4E4D50;}
	.st23{fill:#9C9B9F;}
	.st24{fill:#6E6D74;}
	.st25{fill:#61606A;}
	.st26{fill:#A5A4AA;}
	.st27{fill:#38373D;}
	.st28{fill:#B3B3B3;}
	.st29{fill:#B5B5B6;}
	.st30{fill:#ADACB0;}
	.st31{fill:#FFFFFF;stroke:#004225;stroke-miterlimit:10;}
	.st32{fill:#4E4D51;}
	.st33{fill:#5E5E60;}
	.st34{fill:#858587;}
	.st35{fill:#67666D;}
	.st36{fill:#B7B6BA;}
	.st37{fill:#AAA9AD;}
	.st38{fill:#69686E;}
	.st39{fill:#68676A;}
	.st40{fill:#555457;}
	.st41{fill:#656468;}
	.st42{fill:#78777D;}
	.st43{fill:#B0B0B0;}
	.st44{fill:#B9B9B9;}
	.st45{fill:#515054;}
	.st46{fill:#5F5E66;}
	.st47{fill:#22222E;}
	.st48{fill:#1C192B;}
</style>
<g id="Layer_3">
	<rect class="st0" width="1280" height="1280"/>
</g>
<g id="Layer_1">
	<path class="st1" d="M438.83,788.78c1.17,2.19,3.03,4.22,1.4,6.97c-0.55,0.42-1.1,0.41-1.64,0c-1.88-1.72-1.94-4.76-4.4-6.05
		c-0.19-4.72-3.23-8.32-5.36-12.08"/>
	<path class="st1" d="M395.67,683.26"/>
	<path class="st2" d="M438.59,795.74c0.51-0.04,1.02-0.09,1.52-0.13c3.7,0.58,4.06,3.89,4.97,6.48c3.37,9.57,4.69,19.65,6.69,29.54
		c3.68,18.13,8.4,35.94,13.97,53.58c8.48,26.88,20.51,52.09,34.34,76.52c0.96,1.69,1.85,3.43,2.63,5.21
		c6.22,14.25,3.93,27.3-6.78,38.64c-0.81,0.86-1.73,1.56-2.88,1.91c-0.66,0.16-1.24,0.01-1.74-0.44c2.48-4.77,4.44-9.91,7.54-14.23
		c6.01-8.4,4.22-16.48-0.05-24.54c-9.88-18.63-19.77-37.25-27.94-56.73c-5.77-13.75-9.67-28.1-14.24-42.24
		c-6.55-20.24-9.04-41.43-14.3-61.98C441.3,803.41,439.84,799.6,438.59,795.74z"/>
	<path class="st3" d="M740.2,1017.58c1.49,3.19,2.97,6.37,4.46,9.56c2.74,8.36,9.3,11.63,17.27,13.27c2.95,0.61,5.75,1.95,8.64,2.87
		c28.68,11.16,55.94,25.02,81.24,42.62c2.22,1.54,4.34,3.23,6.39,4.98c4.68,4,4.43,6.82-1.38,9.37c-6.86,3.02-13.97,5.47-20.99,8.12
		c-4.6,1.74-9.24,3.4-13.86,5.1c-5.99,1.79-11.34,5.45-17.74,6.07c-1.99,0.03-4.03,0.23-5.59-1.42c10.8-3.51,21.62-6.93,32.38-10.55
		c6.91-2.33,13.78-4.81,20.56-7.5c2.39-0.95,5.86-1.32,6.34-4.42c0.48-3.12-2.68-4.61-4.75-6.07
		c-11.21-7.91-22.74-15.29-35.01-21.51c-15.5-7.86-30.84-16.1-47.21-22.02c-5.99-2.17-11.74-6.12-18.82-4.08
		c-2.38,0.68-3.13-1.85-3.97-3.53c-5.4-10.83-10.75-21.69-16.11-32.53c0.43-0.4,0.94-0.57,1.52-0.51
		C737.07,1008.75,738.24,1013.38,740.2,1017.58z"/>
	<path class="st4" d="M835.9,1093.04c2.22-4.1,5.43-4.05,8.97-2.59c2,0.82,4.06,1.71,3.85,4.47c-0.22,2.89-2.41,2.79-4.54,3.4
		c-5.54,1.6-10.93,2.97-16.88,2.43c-3.24-0.3-7.3,0.02-8.38,5.1c-0.42,1.98-3.43,3.93-5.49,3.73c-6.89-0.68-12.07,2.37-17.03,6.42
		c-0.96,0.78-2.2,1.22-3.08,0.05c-0.9-1.2-0.03-2.05,0.98-2.84c4.66-3.69,8.76-9.29,14.03-10.76c9.96-2.79,16.04-11.08,25-14.88
		C835.43,1086.68,835.91,1087.8,835.9,1093.04z"/>
	<path class="st5" d="M639.94,1131.18c-1.27,3.85-4.21,4.28-7.81,4.45c-21.73,1.05-42.44-5.16-63.5-8.76
		c-7.04-1.2-14.02-2.76-21.04-4.07c-2.08-0.39-4.36-0.28-5.06-2.96c1.93-2.64,4.24-0.53,6.18-0.2c3.48,0.6,6.98,1.32,10.31,2.57
		c-4.95-2.55-11.4-0.87-15.36-6.04c0.19-0.59,0.57-1.01,1.12-1.28c2.36-0.93,4.56-0.15,6.77,0.63c8.8,3.07,17.95,4.88,26.87,7.5
		c1.85,0.54,3.78,0.84,6.18-0.09c-0.98-3.46-3.58-5.74-5.88-8.14c-3.9-4.05-8-7.92-11.26-12.54c-1.17-1.67-3.08-3.26-1.18-5.61
		c2.53-0.84,4.16,0.72,5.46,2.38c4.2,5.37,9.31,9.88,13.95,14.83c2.41,2.57,4.55,5.39,5.5,8.81c1.02,3.63,3.17,5.21,6.88,5.99
		c10.3,2.16,20.67,2.93,31.17,3.15c3.88,0.08,6.73-3.02,10.53-2.28C640.3,1130.02,640.35,1130.58,639.94,1131.18z"/>
	<path class="st6" d="M639.94,1131.18c-0.11-0.55-0.22-1.1-0.33-1.65c-1.88-2.81,0.16-4.84,1.58-6.77
		c8.51-11.54,18.08-22.22,26.93-33.49c11.46-13.1,20.77-27.8,31.22-41.65c2.09-2.77,4-5.68,6.51-8.13
		c8.24-10.28,13.45-21.99,16.27-34.78c0.73-3.3,1.01-7.24,5.46-6.68c3.97,0.5,6.02,3.59,5.77,7.81c-0.43,0.02-0.86,0.04-1.29,0.05
		c-0.57-0.78-1.1-1.6-1.73-2.34c-0.82-0.98-1.01-2.98-2.69-2.62c-1.64,0.35-2.18,1.94-2.43,3.61c-2.51,17.09-11.9,30.77-21.65,44.38
		c-12.65,17.67-26.37,34.51-39.53,51.77c-5.76,7.55-11.8,14.92-18.07,22.05C643.63,1125.4,643.09,1129.21,639.94,1131.18z"/>
	<path class="st7" d="M491.3,1007.05c0.44,0.01,0.87,0.03,1.31,0.04c1.75,2.19,0.28,3.99-0.71,5.85
		c-4.04,7.54-10.59,12.21-18.02,15.96c-18.04,9.11-35.96,18.45-52.18,30.67c-0.93,0.7-1.94,1.3-2.84,2.04
		c-4.34,3.57-4.29,5.13,0.19,8.4c5.67,4.14,12.06,7.08,17.91,10.93c1.36,1.27,4.03,1.76,2.78,4.6c-9.54-3.41-17.96-8.87-26.1-14.72
		c-3.6-2.59-3.01-6.54,1.12-10.33c9.19-8.43,19.89-14.69,30.74-20.64c9.14-5.01,18.41-9.78,27.68-14.54
		C481.23,1021.19,486.89,1014.76,491.3,1007.05z"/>
	<path class="st8" d="M798.65,1118.12c1.93,0,3.87,0,5.8,0c0.1,1.94-1.45,1.87-2.7,2.32c-5.51,1.97-11.38,2.36-15.89,3.83
		c11.07-1.69,22.6-6.47,34.94-7.33c7.36-2.39,15.2-3.19,22.19-6.8c0.81,0.33,1.62,0.65,2.44,0.97c-8.96,4.8-18.94,6.48-28.58,9.14
		c-14.94,4.12-30.3,6.3-45.49,9.21c-5.57,1.07-11.22,1-16.92-0.25C769.26,1125.81,784.08,1122.43,798.65,1118.12z"/>
	<path class="st7" d="M541.76,1119.87c-2.2,1.43-4.66,0.83-6.78,0.27c-19.82-5.28-39.86-9.87-58.83-17.89
		c-10.67-4.51-21.68-8.28-31.59-14.47c0.84-1.11,2.02-1.29,3.29-1.24c9.34,3.19,18.2,7.52,27.22,11.49
		c3.58,1.99,7.47,3.24,11.27,4.72c0.52,0.17,1.03,0.38,1.54,0.58c5.52,1.93,11.01,3.94,16.75,5.14c3.38,0.84,6.9,1.11,10.13,2.55
		c2.63,1.27,5.4,2.02,8.31,2.25c0.61,0.08,1.19,0.23,1.77,0.42c3.98,1.66,8.38,1.72,12.36,3.31
		C538.86,1117.68,541.24,1117.34,541.76,1119.87z"/>
	<path class="st9" d="M541.76,1119.87c-5.8-2.2-12.23-2.21-17.8-5.21c1.87-2.27,4.79-1.37,7.09-2.37c4.66-0.46,8.84,0.7,12.46,3.71
		c5.58,1.98,11.16,3.96,18.1,6.41c-7.5,0.4-13.17-2.01-19.08-2.58c0,0-0.38,0.13-0.38,0.13L541.76,1119.87z"/>
	<path class="st9" d="M448.18,1087.63c-1.2,0.05-2.41,0.1-3.61,0.14c-1.61-0.74-3.22-1.49-4.83-2.23c0.05-2.28-2.56-2.12-3.34-3.65
		C441.67,1080.65,446.1,1082.81,448.18,1087.63z"/>
	<path class="st10" d="M369.86,614.59c3.7,2.39,4.57,6.56,6.28,10.16c3.98,8.37,7.46,16.99,12.27,24.95
		c9.91,18.53,17.6,38.04,23.94,57.97c5.42,17.02,11.1,33.9,18.5,50.13c4.09,8.96,7.76,18.2,13.84,26.12
		c0.81,1.05,1.34,2.65,3.01,2.22c1.3-0.33,1.22-1.85,1.55-2.92c0.91-2.97,1.59-5.97,1.95-9.08c2.44-20.97,5.23-41.89,9.87-62.52
		c2.4-10.7,6.7-20.24,15.22-27.51c1.32-1.13,2.51-2.44,3.11-4.16c0.24-0.55,0.57-1.04,0.95-1.5c13.23-11.78,25.16-24.87,37.74-37.32
		c4.48-4.44,9.43-7.94,14.98-10.93c20.7-11.16,42.12-20.85,63.21-31.2c14.62-7.17,29.94-12.92,45.28-18.5
		c1.63-0.6,3.76-1.59,4.81,0.17c1.36,2.26-0.99,3.45-2.53,4.39c-9.95,6.06-19.8,12.28-29.8,18.25c-3.02,1.8-5.6,4.21-8.66,5.93
		c-6.39,3.36-11.95,7.88-17.46,12.49c-0.41,0.36-0.85,0.67-1.33,0.94c-1.21,0.56-2.42,1.13-3.31,2.17
		c-2.65,3.09-1.85,5.82,2.05,6.68c2.89,0.64,5.67,0.27,8.14-1.55c0.58-0.24,1.17-0.4,1.78-0.49c9.85,0.13,19.37-1.89,28.83-4.32
		c2.28-0.58,4.57-0.69,6.84,0.12c2.12,1.21,2.62,2.82,1.23,4.91c-1.85,2.11-4.38,2.33-6.9,2.26c-4.21-0.13-7.82,1.89-11.67,3.05
		c-1.78,0.54-2.68,1.72-2.26,3.98c1.9,10.21,1.59,10.51-8.54,10.53c-0.96,0-1.93,0.02-2.9-0.03c-15.62-2.94-31.35-5.41-46.86-8.86
		c-12.98-2.89-22.45,2.15-31.08,10.97c-11.57,11.83-23.39,23.42-35.07,35.13c-10.46,10.49-13.69,24.02-16.02,37.93
		c-5.32,31.84-9.96,63.78-8.19,96.19c0.63,11.43,3.59,22.63,6.43,33.71c6.19,24.09,14.02,47.67,23.64,70.64
		c4.57,10.92,9.61,21.63,15.17,32.08c6.27,11.79,9.88,24.33,12.07,37.48c1.63,9.79,5.8,18.88,9.79,27.97
		c9.48,21.59,23.92,39.89,38.56,58.02c9.15,11.34,18.03,22.91,27.75,33.78c3.99,4.47,8.28,8.83,14.44,10.42
		c2.53,2.03,5.52,1.51,8.42,1.52c2.61-0.01,5.23,0.06,7.83,0.03c2.99,0.33,4.84-1.25,6.15-3.71c4.63-7.73,10.92-13.98,17.54-19.95
		c2.26-1.24,4.06-2.86,4.55-5.56c0.96-2.92,2.77-5.23,5.11-7.17c2.96-2.37,4.93-5.82,8.32-7.75c1.32-0.54,2.67-2.08,4.08-0.58
		c1.25,1.33-0.3,2.38-0.86,3.5c-0.77,1.54-1.87,2.87-2.7,4.37c-8.35,10.45-16.73,20.87-25.03,31.37c-1.9,2.4-4.03,4.76-4.33,8.06
		c-7.26,6.7-16.04,3.39-24.14,3.2c-6.89-0.16-13.73-1.99-20.6-3.01c-2.27-0.34-4.13-0.91-4.39-3.68c-0.47-4.94-3.52-8.46-6.76-11.85
		c-4.8-5.03-10.07-9.62-14.11-15.35c-0.8-1.14-1.74-2.1-3.31-1.97c-3.7-0.75-5.35-3.83-7.38-6.49
		c-4.97-8.37-11.75-15.39-17.33-23.31c-10.53-14.96-19.83-30.54-26.04-47.83c-1.31-3.65-2.56-7.31-4.41-10.73
		c-2.62-4.84-4.22-4.99-7.03-0.12c-2.99,5.19-5.54,10.65-8.27,15.99c-3.08,6.05-7.34,10.91-12.49,15.15
		c-10.79,5.84-22.62,9.26-33.67,14.51c-6.33,3.01-12.55,6.11-18.21,10.31c-2.85,2.11-2.21,3.74,0.22,5.36
		c2.6,1.72,5.48,2.95,8.22,4.41c23.37,12.43,47.67,22.62,72.78,31.02c6.3,2.11,13.09,3.65,18.32,8.33
		c-2.07,2.08-4.77,0.41-7.06,1.18c-0.34-0.03-0.68-0.1-1.02-0.19c-2.54-1.62-5.6-1.24-8.33-2.13c-3.45-0.85-6.9-1.71-10.36-2.56
		c-5.58-2.75-11.72-3.77-17.54-5.76l0,0c-3.61-2.25-7.59-3.6-11.68-4.67c-8.95-3.9-17.91-7.81-26.86-11.71
		c-3.17-3.46-7.4-4.74-11.78-5.73c-6.5-3.79-13.1-7.43-19.48-11.42c-5.02-3.14-5.02-5.11,0.03-9.12
		c9.23-7.34,18.98-13.94,29.42-19.47c10.91-5.78,21.88-11.49,32.61-17.6c6.71-3.82,11.55-9.51,13.63-17.19
		c6.56-9.23,14.62-17.96,11.96-30.68c-1.39-6.68-5.03-12.5-8.34-18.37c-15.64-27.72-27.89-56.8-36.66-87.45
		c-5.71-19.96-9.5-40.28-13.79-60.52c-1.08-5.1-2.29-10.23-5.66-14.47c-2.99-8.37-7.78-15.86-11.85-23.68"/>
	<path class="st11" d="M358.67,581.3c1.81,0.4,2.26,1.99,1.15,3.64c-2.28,3.4,1.85,5.12,2.34,8.02"/>
	<path class="st10" d="M885.76,618.5c9.32-77.35,1.48,3.43,2.45,5.19c0.17,0.59,0.27,1.18,0.32,1.8c0.85,5.44,0.46,10.87-0.07,16.3
		c-2.59,10.72-8.08,20.18-13.81,29.35c-4.35,6.96-4.05,14.64-4.5,21.9c-1.28,21-12.73,34.73-29.5,45.29
		c-2.96,1.86-6.02,3.57-8.52,6.07c-10.89,8.69-20.11,19.26-31.13,27.83c-1.8,1.51-3.94,2.46-6.02,3.44
		c-5.77,2.72-7.72,1.92-10.92-4.07c-3.85-10.43-9.26-20.02-15.81-28.98c-0.81-1.1-1.7-2.12-2.09-3.47
		c-13.66-19.74-29.37-37.51-48.2-52.59c-6.85-5.49-14.26-9.99-21.39-14.98c-1.28-0.9-2.35-2.04-3.58-2.99
		c-1.11-0.85-2.35-2.04-1.75-3.39c0.81-1.83,2.91-2.05,4.59-1.65c4.72,1.14,9.65,1.38,14.28,2.62c11.24,3.01,22.73,4.83,34.02,7.55
		c14.15,3.42,28.43,6.39,42.03,11.91c-4.2-3.37-9.24-5.28-13.88-7.88c-4.76-2.67-9.8-4.67-14.85-6.68
		c-16.62-6.61-33.76-11.65-51.43-14.18c-10.32-1.48-20.72-2.85-31.21-3.49c-16.88-1.03-33.47-4.31-49.54-9.79
		c-2.76-0.94-5.69-1.31-8.37-2.53c-1.23-0.56-2.84-1.07-2.8-2.62c0.03-1.42,1.44-2.2,2.65-2.87c1.2-0.67,2.49-1.13,3.85-1.3
		c17.2-2.24,33.37-8.7,50.24-12.3c22.35-4.77,44.51-10.33,67.35-12.75c8.9-0.94,17.9-1.57,26.68-1.61
		c16.01-0.08,32.24,0.6,47.74,5.79c2.78,0.93,5.85,0.56,8.44,2.1c10.81,3.82,21.47,7.99,31.61,13.39c1.32,0.7,2.69,2.15,4.17,0.69
		c1.27-1.25,0.67-2.89,0.09-4.38c-4.24-10.88-12.42-17.87-23.04-21.7c-22.6-8.16-45.84-8.73-69.5-5.54
		c-8.98,1.21-18.1,1.77-27.11,3.01c-12.3,1.69-24.48,4.03-36.67,6.4c-17.15,3.33-33.91,8.27-50.98,11.91
		c-18.98,4.05-37.97,8.13-57.25,10.57c-0.77,0.1-1.54,0.28-2.32,0.23c-2.1-0.13-4.65,0.29-5.51-2.23c-0.76-2.23,1.18-3.43,2.75-4.63
		c17.26-13.25,34.83-26.02,53.85-36.71c6.52-3.67,12.39-8.47,19.25-11.15c-20.85,5.06-40.52,13.77-60.3,22.12
		c-10.9,4.6-21.15,10.62-31.88,15.64c-13.02,6.09-25.82,12.58-38.54,19.28c-5.87,3.09-9.62,8.41-14.63,12.37
		c-1.2,0.95-1.94,2.56-3.86,1.63c-1.79-5.19,2.16-7.96,5.05-10.74c6.68-6.46,13.8-11.78,23.02-15.17
		c9.06-3.33,17.18-9.7,20.66-20.07c1.82-5.43,2.99-5.03,8.48-3.11c4.45,1.56,9.62,4.04,13.92-1.04c1.39-1.64,3.47-1.58,5.43-1.54
		c2.82,0.06,5.49-0.22,6.87-2.21c-1.06,1.14-2.93,2.16-5.23,2.15c-3.13-0.01-6.07,0.02-8.64,2.51c-1.48,1.44-10.63-0.66-12.09-2.24
		c-0.93-1.01-0.96-2.18-0.36-3.23c1.9-3.35,2.18-7.54,5.36-10.23c2.27-1.92,2.6-4.7,3.04-7.39c0.8-4.92,2.73-8.88,8.01-10.4
		c1.92-0.55,3.52-1.9,4.37-3.69c4.1-8.71,11.38-14.74,17.95-21.31c7.7-7.7,15.24-15.55,23.16-23.04c2.82-2.66,5.64-5.39,6.99-9.21
		c0.39-1.11,0.87-2.42,1.93-2.84c9.1-3.62,11.21-12.97,16.24-19.88c2.71-3.72,4.91-7.82,5.58-12.68c0.49-3.53,3.52-5.96,5.59-8.76
		c4.66-6.3,2.21-12.05-5.12-14.59c-6.34-2.2-12.52-3.74-19.25-3.32c-3.9,0.24-7.52,0.69-11.27,2.26c-6.26,2.62-13.04,1.44-19.6,0.86
		c-8.53-0.75-17.03-1.85-25.38,1.16c-1.1,0.39-2.3,0.44-3.47,0.41c-13.44-0.28-26.57,2.17-39.75,4.34c-3.86,0.64-8.44,2.1-11.8-1.93
		c4.33-2.82,9.6-2.78,14.3-3.53c7.58-1.2,15.16-3.02,22.91-3.21c5.26,0.23,10.41-0.42,15.47-1.85c1.92-0.45,3.87-0.42,5.82-0.46
		c23.27-1.03,46.51-3.29,69.85-2.36c1.36,0.05,2.42,0.5,1.73-1.94c-0.66-2.33,2-2.56,3.59-2.53c10.86,0.16,21.78-1.21,32.59,0.95
		c9.34,1.87,18.9,1.69,28.34,3.16c12.89,2,25.55,4.79,38.17,7.92c2.42,0.6,4.8,1.08,7.92,1.79c-0.75-3.66-3.26-4.15-5.13-4.97
		c-8.24-3.6-16.9-5.96-25.81-6.83c-4.87-0.48-8.12-2.51-10.2-6.57c-14.98-29.23-33.66-56.33-49.11-85.28
		c-5.01-8.13-9.26-16.65-13.32-25.28c-0.79-1.68-2.02-3.44-0.07-5.2c4.41,0.86,5.25,4.87,6.77,8.05
		c5.05,10.55,10.96,20.59,17.55,30.2c4.95,7.22,8.9,15.05,13.79,22.32c2.54,3.77,7.77,5.01,8.64,10.28
		c0.19-2.62,1.03-4.35,3.07-6.02c10.83-8.84,22.68-15.53,36.39-18.69c2.69-0.62,4.31-2.57,5.63-4.77c2.52-4.2,6.15-5.74,10.9-4.8
		c5.43,1.08,10.46,0.81,14.39-3.86c1.03-1.23,2.53-1.85,4.2-1.55c15.66,2.82,31.45,0.71,47.16,1.28c4.88,0.18,9.52,0.1,13.82,3.37
		c3.4,2.58,7.94,1.11,11.97,1.41c4.46,0.33,7.43,2.25,7.82,6.98c0.24,2.88-0.3,5.15-3.68,6.35c-4.27,1.52-6.06,13.03-2.78,16.21
		c0.86,0.84,1.95,1.41,3.17,0.94c1.53-0.59,1.91-1.96,1.58-3.37c-0.77-3.23-1.52-6.44-1.17-9.8c0.25-2.44,0.74-4.87,3.76-5.04
		c3.16-0.18,4.11-2.22,5.1-4.72c1.57-3.96,3.58-7.73,5.53-11.53c2.05-4,1.75-8.95,2.72-13.44c0.23-1.09-0.34-2.44,0.13-3.46
		c4.05-8.85,2.82-18.68,5.31-27.81c0.15-0.56,0.44-1.12,0.41-1.7c-0.48-10.72,2.53-21.23,2.41-31.82
		c-0.15-13.36,1.61-26.36,4.01-39.38c0.73-3.98,1.12-4.35,4.31-4.74c0.79,7.78-2,15.18-2.44,22.83c-0.71,12.3-1.91,24.57-1.85,36.91
		c-0.16,0.65-0.38,1.29-0.63,1.92c-0.58,8.16-1.5,16.31-1.57,24.5c-2.25,21.83-7.85,42.8-15.14,63.51
		c-6.18,17.54-15.63,33.21-24.94,49.03c-7.46,12.68-16.33,24.45-24.33,36.78c-2.41,3.12-1.46,4.86,2.28,5.28
		c2.82,0.32,5.66,0.48,8.51,0.57c0.83,0.2,1.63,0.47,2.45,0.7c15.37,6.23,23.79,18.53,29.29,33.41c2.49,6.72,5.26,13.34,6.81,20.38
		c1.35,6.15,2.21,12.41-0.38,18.3c-3.43,7.82-1.14,14,3.75,20.3c6.41,8.26,8.74,12.18,10.89,27.34"/>
	<path class="st12" d="M650.98,1103.79c-5.82,6.59-12.43,12.5-17.12,20.06c-2.04,1.49-3.57,3.69-6.08,4.55
		c-2.95,0.01-5.9,0.01-8.84,0.02c-2.78-0.86-5.91-0.17-8.47-1.96c-6.95-0.38-11.15-5.25-15.07-9.95
		c-17.38-20.83-35.06-41.43-50.61-63.72c-11.49-16.48-20.36-34.32-25.52-53.73c-2.38-8.95-3.48-18.19-6.63-27.04
		c-3.85-10.83-9.83-20.56-14.71-30.85c-11.07-23.35-19.33-47.7-26.74-72.38c-7.26-24.16-12.22-48.72-10.4-74.08
		c2.2-30.65,5.7-61.16,13.52-90.98c1.7-6.48,6.31-11.6,10.79-16.37c13-13.86,26.64-27.08,40.25-40.34
		c8.43-8.21,17.53-9.44,28.25-7.26c15.41,3.13,30.9,5.85,46.36,8.75c11.35,1.04,22.08,4.53,32.76,8.22
		c11.41,3.97,22.84,7.89,34.23,11.94c1.96,0.7,3.73,1.91,5.59,2.89c0.42,0.56,0.42,1.12,0.02,1.69c-2.35,1.54-4.48,0.31-6.62-0.57
		c-23.84-9.82-48.76-15.9-73.82-21.55c-14.96-3.38-30.11-5.74-45.18-8.54c-4.54-0.84-8.43-0.19-12.17,2.37
		c-2.25,1.54-4.59,3-6.55,4.87c-14.94,14.18-29.86,28.4-43.31,44.04c-4.55,5.29-7.39,11.24-8.76,18.15
		c-4.58,23.09-8.25,46.31-10.16,69.78c-0.5,6.2-2.21,12.22-2.28,18.51c-0.22,20.06,3.96,39.47,8.91,58.67
		c6.11,23.74,14.01,46.94,23.85,69.44c4.6,10.52,9.81,20.74,15.23,30.85c5.87,10.95,8.13,23.01,10.74,34.98
		c4.76,21.84,15.04,41.17,27.72,59.34c14.93,21.42,32.56,40.71,48.52,61.32c6.76,8.72,16.7,9.04,26.48,9.31
		c2.67,0.07,4.51-2.21,6.15-4.11c6.77-7.77,14.06-15.07,20.39-23.23c2.32-2.99,4.43-6.52,8.8-7.09c0.61,0.4,0.74,0.92,0.4,1.56
		c-1.67,2.19-3.34,4.39-5,6.58C654.94,1100.43,653.13,1102.25,650.98,1103.79z"/>
	<path class="st11" d="M820.49,617.04c-10.97-3.21-22.05-6.01-33.46-6.92c-22.54-1.79-45-0.61-67.26,3.26
		c-13.87,2.41-27.54,5.91-41.32,8.68c-19.36,3.9-37.83,11.27-57.49,13.74c-2.04,0.26-3.97,1.39-7.42,2.66
		c16.18,4.47,30.57,9.46,45.98,11.45c21.11,2.73,42.44,3.66,63.3,8.82c22.82,5.64,44.69,13.17,64.71,25.62
		c1.58,0.98,3.54,1.75,3.6,5.11c-32.03-13.14-65.79-17.56-100.43-25.64c5.68,7.28,15.19,7.75,18.12,14.08
		c6.18,13.34,30.58,21.9,42.2,39.08c5.96,6.98,12.43,13.88,16.24,22.53c-0.43,0.7-0.88,0.71-1.36,0.05
		c-6.44-7.91-12.63-16.04-19.36-23.69c-12.16-14.56-22.88-28.89-42.49-38.25c-2.55-1.25-4.98-2.68-7.08-4.63l0,0
		c-3.38-1.76-7.1-3.16-9.04-6.74c-1.33-2.45-1.37-4.54,2.44-4.36c3.45,0.17,6.91,0.13,10.11,1.72c0.72,0.05,1.44,0.09,2.16,0.14
		c3.46,1.19,7.39,0.17,10.65,2.29l-0.02-0.01c3.36,1.38,7.35,0.06,10.48,2.45l-0.02-0.03c13.8,1.42,27.01,5.91,39.44,7.42
		c-13.21-7.86-29.35-11.33-45.18-15.69c-0.7-0.06-1.4-0.12-2.1-0.18c-3.01-1.54-6.66-0.24-9.58-2.17c-1.09-0.06-2.18-0.11-3.27-0.17
		c-5.74-2.2-12.07,0.42-17.77-2.14l-0.48-0.17l-0.51,0.02c-4.99-0.72-10.02-0.76-15.04-1.07c-2.1-0.13-4.32,0.4-6.17-1.12
		l-0.48-0.17l-0.51,0.03c-5.01-1.36-10.46,0.18-15.28-2.36l0.03,0.02c-5.56-1.22-11.2-2.19-16.4-4.67l0.02,0.02
		c-4.97-0.53-9.38-3.46-14.55-3.25c-1.49,0.06-2.9-1.06-4.1-2.07c-2.39-2.01-2.5-3.81,0.5-5.31c3.15-1.58,6.54-2.78,9.93-3.15
		c12.26-1.33,23.48-6.5,35.38-9.09c0.57-0.23,1.17-0.4,1.77-0.51c3.29-0.18,6.47-0.91,9.57-2.05c3.25-0.56,6.58-0.83,9.58-2.45
		c0.62-0.22,1.24-0.35,1.89-0.43c11.41-2.34,22.63-5.52,34.17-7.32c14.4-2.24,28.77-4.38,43.38-4.49c1.59-0.01,3.08-0.41,4.58-0.8
		c4.1-0.65,8.2-0.67,12.31-0.03c10.47,1.73,21.16,1.8,31.53,4.32c5.45,1.32,10.9,2.63,16.34,4.01c1.29,0.53,2.43,1.23,3,2.59
		C824.39,618.53,822.36,617.36,820.49,617.04z"/>
	<path class="st11" d="M568.47,446.35c-12.54,1.66-25.19,2.65-37.5,5.79c-3.58,2.71-7.98,2.98-12.11,3.65
		c-20.99,3.4-41.16,9.5-61.26,16.42c-19.36,6.68-36.96,16.26-54.03,27.19c-18.14,11.62-27.27,29.31-33.13,49.2
		c-2.77,9.38-4.23,19.02-4.26,28.73c-0.03,11.74,2.19,23.14,6.76,34.1c5,12.02,11.65,23.34,15.27,35.94
		c0.07,0.99-0.14,1.87-0.93,2.54c-6.27-9.23-10.09-19.69-14.77-29.71c-0.88-1.88-1.77-3.75-2.65-5.62
		c-2.23-8.32-4.65-16.55-6.45-25.03c-2.86-13.48,0.29-26.01,2.62-38.87c0.89-4.93,4.21-9.16,3.87-14.38
		c6.92-14.39,14.47-28.38,28.04-37.74c18.37-12.67,37.95-22.8,59.14-30.28c24.8-8.76,50.14-14.93,75.93-19.54
		c2.85-0.51,5.75-0.75,8.63-1.12c5.25-2.31,11.03-0.83,16.39-2.3l0.05,0c3.14-2.5,6.56-1.2,9.92-0.74
		C568.68,445.04,568.83,445.63,568.47,446.35z"/>
	<path class="st13" d="M720.52,702.96c1.14,0.7,2.44,1.23,3.38,2.13c14.43,13.88,28.32,28.29,39.13,45.23
		c9.22,14.46,16.23,30.05,18.51,47.2c0.75,5.6-0.32,11.55-1.21,17.24c-3.6,23.06-9.13,45.7-15.97,67.99
		c-3.21,10.47-7.53,20.59-11.34,30.87c-1.56,3.48-2.57,7.22-4.74,10.43c-1.31,0.87-0.96,2.31-1.2,3.54
		c-1.88,2.98-2.43,6.58-4.45,9.5c-2.4,4.63-4.79,9.26-7.19,13.88c-1.43,2.8-3,5.52-4.54,8.27l0-0.01c-2.17,2.15-1.47,7.07-6.37,6.59
		c-0.51-5.11,2.96-8.75,5.16-12.65c17.08-30.37,29.18-62.62,37.73-96.33c3.63-14.32,6.45-28.8,9.14-43.3
		c2.99-16.19-2.08-30.96-8.42-45.67c-9.42-21.86-25.87-38.08-41.95-54.71c-2.51-2.6-5.91-4.6-6.55-8.65
		C719.71,703.87,720.01,703.35,720.52,702.96z"/>
	<path class="st11" d="M681.76,344.85c13.98,23.64,27.98,47.28,41.94,70.94c3.23,5.48,6.31,11.05,9.46,16.57
		c1.5,2.63,3.81,3.38,6.78,3.66c10.5,0.98,20.59,3.7,30.12,8.28c2.08,1,4.82,2.16,3.9,5c-1.03,3.17-3.73,1.65-5.9,1.07
		c-33.32-8.94-67.16-13.93-101.72-13.32c-1.5,0.03-3,0.14-4.47,0.22c-0.18,1.72,0.95,1.72,1.82,1.99c0.69,0.22,1.38,0.42,2.08,0.64
		c-0.58,1.68-1.8,1.84-2.93,1.8c-24.5-0.88-48.91,1.1-73.34,2.32c-0.38-0.64-0.28-1.2,0.29-1.67c4.81-2.08,10.05-0.45,14.95-1.75
		l-0.01,0c9.15-2.27,18.47-0.9,27.71-1.21c5.03-0.17,10.08-0.04,15.12-0.03c3.84,0.01,7.8,0.56,10.44-3.37
		c0.78-1.15,2.34-1.26,3.73-1.27c11.44-0.04,22.87-0.11,34.31,0.04c1.19,0.01,2.27,0.45,3.3,1.03c0.35,0.08,0.71,0.13,1.07,0.14
		c6.96,1.4,14.23-0.02,21.1,2.27c0.34,0.11,0.68,0.16,1.03,0.15c15.08,0.92,29.81,3.73,44.24,8.22c-8.41-4.34-17.73-5.22-26.77-7.1
		c-5.63-1.17-9.36-4.26-11.38-9.57c-12.94-24.45-28.08-47.62-41.79-71.61c-1.99-3.48-4.37-6.81-5.18-10.86
		C681.21,346.55,681.05,345.68,681.76,344.85z"/>
	<path class="st14" d="M681.76,344.85c-0.04,0.86-0.08,1.72-0.13,2.58c-7.96-10.53-13.31-22.56-18.72-34.41
		c-7.2-15.79-14.73-31.54-19.25-48.41c-3.16-11.79-5.64-23.72-6.36-36.01c-1-17.04,5.48-28.04,22.2-34.16
		c22.25-8.15,44.97-12.52,68.51-13.37c3.74-0.94,7.53-0.25,11.29-0.43c1.75,3.44-1.39,3.05-2.83,3.11
		c-5.05,0.21-10.04,0.96-15.07,1.37c-22.76,1.88-44.9,6.1-65.95,15.53c-10.52,4.71-13.94,13-13.97,23.34
		c-0.03,10.87,1.29,21.63,4.17,32.2c4.71,17.3,11.02,33.95,18.92,50.03c1.45,2.95,2.99,5.9,3.01,9.33
		c2.48,8.73,7.67,16.19,11.42,24.32C679.8,341.59,680.84,343.2,681.76,344.85z"/>
	<path class="st15" d="M842.71,468.75c-0.69-0.06-1.38-0.12-2.07-0.18c-2.92-1-6-0.75-8.99-1.2c-3.99-0.6-4.93-2.5-2.75-5.91
		c15.29-22.59,30.8-45.06,42.59-69.76c7.85-16.46,13.28-33.79,17.1-51.64c1.91-8.9,3.61-17.82,4.61-26.87
		c1-8.56,1.18-17.19,2.3-25.73l-0.01-0.01c0.47-0.38,0.91-0.33,1.3,0.12c-0.44,25.71-4.48,50.66-12.01,75.44
		c-10.29,33.85-29.29,62.62-48.68,91.38c-2.05,3.04-6.13,6.12-5.23,9.29c0.94,3.29,6.13,1.48,9.28,2.6
		c1.81,0.64,3.58,1.42,5.37,2.13C844.68,469.33,843.71,469.16,842.71,468.75z"/>
	<path class="st16" d="M896.79,287.57c-0.43-0.04-0.87-0.08-1.3-0.12c-0.58-17.88,1-35.59,4.21-53.18c0.52-2.84,0.39-5.8,0.56-8.7
		c-1.52-1.63-0.36-3.27-0.02-4.91c3.93-18.86,10.97-36.75,17.12-54.92c1.18-3.49,2.29-7.01,3.1-10.6c0.99-4.4-0.1-8.11-4.15-10.54
		c-4.11-2.47-6.77,0.29-9.76,2.59c-7.02,5.4-13.3,11.89-21.84,15.1c-0.97-0.03-1.82-0.31-2.41-1.14
		c7.92-7.09,16.97-12.7,25.11-19.55c5.29-4.45,10.57-2.47,16.19,4.52c2.1,3.53,1.55,7.09,0.13,10.66
		c-3.51,13.66-8.59,26.82-12.91,40.22c-5.95,18.45-10.07,37.28-11.84,56.6c-0.7,9.21-1.81,18.39-1.73,27.65
		c0.02,2.09,0.48,4.26-0.46,6.29C896.79,287.55,896.79,287.57,896.79,287.57z"/>
	<path class="st17" d="M882.3,161.15c0.87,0.05,1.73,0.1,2.6,0.15c0.27,0.81,0.14,1.63-0.52,2.1
		c-10.26,7.32-20.69,13.68-34.33,11.39c-8.58-1.44-17.04-3.48-25.9-3.75c-13.46-0.4-26.24,2.17-39.02,5.86
		c-12.36,3.57-25.01,5.73-37.92,5.97c-2.3,0.04-4.72,0.25-6.66-1.49c-4.18-0.11-8.36-0.21-12.55-0.32
		c12.92-1.45,25.82-3.06,38.76-4.3c9.57-0.92,18.47-4.45,27.7-6.67c15.76-3.79,31.59-5.06,47.23-1c14.3,3.72,26.78,1.38,38.44-7.23
		C880.73,161.45,881.58,161.38,882.3,161.15z"/>
	<path class="st18" d="M831,743.9c5.68-5.61,12.89-9.14,19.2-13.94c11.4-8.67,17.09-20.19,18.1-33.7
		c1.06-14.26,4.84-27.1,12.83-38.98c2.91-4.33,4.22-9.75,6.26-14.67c0.8-6.22,1.16-12.43-0.14-18.64l0.01,0.03
		c-0.54-2.21-1.52-4.75,2.6-3.51c-0.66,5.06,1.57,9.9,0.91,15.02c-1.13,8.8-3.94,17.01-8.57,24.47
		c-6.22,10.02-10.48,20.39-10.86,32.48c-0.68,21.61-12.79,36.22-30.47,47.03c-2.47,1.51-4.86,3.13-7.29,4.71
		c-0.48,0.58-1.13,0.7-1.83,0.67C831.3,744.72,831.05,744.39,831,743.9z"/>
	<path class="st19" d="M725.08,966.25c2.96-1.49,3.15-5.29,5.83-7.01c-0.95,5.79-5.74,9.48-7.99,14.59
		c-1.06,2.41-2.78,4.23-0.84,7.33c1.19,1.91,0.73,4.92,0.82,7.44c0.14,4.08,0.42,7.47,5.78,8.5c3.5,0.67,5.29,4.57,6.55,7.76
		c1.68,4.23,5.48,7.66,4.97,12.74c-3.27-3.34-3.84-8.25-6.85-11.73c-0.52-1.25-0.88-2.6-1.6-3.73c-1.15-1.8-2.43-3.69-5.04-3.15
		c-2.82,0.58-2.4,2.96-2.85,5.04c-2.99,13.65-7.9,26.41-17.61,36.86c-1.16-1.08-3.76,2.18-4.12-1.37
		c1.84-6.07,6.15-10.73,9.28-16.04c7.45-12.63,10.25-25.75,6.9-40.18C716.68,976.26,718.88,970.35,725.08,966.25z"/>
	<path class="st11" d="M658.71,624.13c-11.56,3.73-23.17,7.24-35.18,9.27c-0.19,0.03-0.39,0.01-0.58,0.05
		c-4.33,0.76-10.9,0.61-11.45,4.69c-0.43,3.17,6.45,3.6,10.35,4.72c2.93,0.85,5.74,2.12,8.61,3.2c-2.99,0.47-5.7-0.21-8.38-1.62
		c-1.52-0.8-3.39-1.32-4.42,0.95c-0.79,1.72-0.76,3.19,0.82,4.67c1.89,1.77,3.72,2.97,6.49,3.27c2.76,0.3,5.77,0.9,7.75,3.39
		c-11-2.43-22.02-4.76-32.76-8.22c2.14-0.02,4.28-0.04,6.42-0.05c4.22-0.01,6.78-3.88,4.15-7.27c-3.82-4.93-0.22-6.41,3.06-7.43
		c4.37-1.35,8.62-3.55,13.52-2.9c1.41,0.18,2.95-0.71,4.43-1.11c5.93-4.88,13.65-4.77,20.43-7.3
		C654.38,622.36,656.89,621.88,658.71,624.13z"/>
	<path class="st20" d="M699.32,435.79c-11.81-0.05-23.61-0.13-35.42-0.15c-2.7,0-5.47-0.18-6.9,3.03c-0.74,1.67-2.52,1.55-4.08,1.56
		c-16.07,0.12-32.14,0.24-48.21,0.36c2.99-2.06,6.41-2.3,9.88-2.31c11.81-0.05,23.61-0.07,35.42-0.14c1.71-0.01,3.87,0.63,4.99-0.84
		c3.71-4.89,8.9-3.8,13.82-3.82c8.13-0.02,16.26,0.04,24.39,0.09C695.5,433.59,697.99,433.11,699.32,435.79z"/>
	<path class="st11" d="M728.6,429.9c3.18,5.07,7.57,7.65,13.72,8.41c8.05,1,16.08,2.66,23.62,5.95c1.92,0.84,4.01,1.46,5.76,5.35
		c-16.87-5.35-33.15-7.68-49.19-11.27c3.19,0,6.37,0,9.78,0C731.8,434.77,727.45,433.55,728.6,429.9z"/>
	<path class="st11" d="M717.98,660.17c13.51,1.67,26.14,6.43,38.79,11.11c3.08,1.14,6.04,2.57,9.05,3.89
		c1.29,0.56,3.6,0.54,2.62,2.8c-0.69,1.59-2.38,0.6-3.64,0.3c-11.09-2.65-22.18-5.32-33.27-7.97c-2.6-0.62-5.21-1.24-7.81-1.86
		c8.24-1.03,15.87,1.67,23.56,3.9c2.06,0.6,3.96,0.8,7.55-0.15c-11.57-3.74-21.47-7.62-31.96-9.54
		C720.92,662.28,718.98,662.27,717.98,660.17z"/>
	<path class="st21" d="M720.52,702.96c-0.07,0.54-0.15,1.08-0.22,1.62c-5.68-0.97-9.22-5.38-13.1-8.84
		c-9.24-8.23-20.31-13.24-30.98-19c-1.6-0.86-3.9-1.03-3.82-3.67c0.04-0.52,0.09-1.03,0.13-1.55c11.39,3.58,21.34,9.87,30.96,16.7
		C709.62,692.59,715.89,696.85,720.52,702.96z"/>
	<path class="st22" d="M820.81,1116.94c-12.15,4.26-24.74,6.4-37.59,7.46c7.08-2.09,14.15-4.18,21.23-6.28
		c5.93-1.21,11.3-4.53,17.53-4.65c-0.82,1.56-3.5,0.66-3.71,2.83C818.26,1116.43,819.93,1116.72,820.81,1116.94z"/>
	<path class="st23" d="M765.89,739.57c0.45-0.02,0.9-0.03,1.35-0.05c6.59,8.14,11.56,17.25,16.03,26.66
		c0.74,1.56,1.66,3.1,1.25,4.96c-0.39,0.54-0.79,0.55-1.21,0.03C777.51,760.64,771.7,750.1,765.89,739.57z"/>
	<path class="st18" d="M800.82,771.02c10.06-9.04,20.12-18.07,30.19-27.11c0.14,0.17,0.29,0.35,0.44,0.52
		c-1.01,3.89-4.53,5.55-7.14,8.02c-5.81,5.48-11.62,10.97-17.42,16.45C804.74,769.28,803.72,772.83,800.82,771.02z"/>
	<path class="st20" d="M568.48,445.31c-3.46,0.01-6.93,0.01-10.39,0.02c0.5-2.94,1-5.88,1.5-8.82c0.55,8.5,6.66,6.24,11.46,6.33
		c2.3,0.04,4.61,0.11,6.91,0.16c0.27,0.67,0.09,1.17-0.55,1.51C574.5,445.55,571.58,446.42,568.48,445.31z"/>
	<path class="st19" d="M770.57,1043.28c-5.15-0.06-9.54-3.81-14.31-3.9c-8.7-0.18-9.03-6.98-11.6-12.23
		c0.19,0.05,0.49,0.04,0.54,0.15c4.22,9.64,13.45,11.23,22.07,13.86C768.47,1041.52,769.47,1042.55,770.57,1043.28z"/>
	<path class="st24" d="M800.82,771.02c2.43,0.46,3.59-2.69,6.06-2.12c-4.23,5.06-10.2,7.83-16.05,9.65
		c-4.35,1.35-6.92-2.88-7.51-7.37c0.4-0.01,0.81-0.02,1.21-0.03C789.31,777.65,790.94,777.64,800.82,771.02z"/>
	<path class="st15" d="M896.79,287.55c-0.44-11.39-0.48-22.75,2.2-33.94C899.11,264.98,898.62,276.31,896.79,287.55z"/>
	<path class="st11" d="M700.47,663.61c-3.01-0.4-6.02-0.85-9.04-1.18c-1.09-0.12-2.45-0.36-3.09,0.83
		c-0.62,1.14,0.19,2.23,0.78,3.18c1.88,3.04,5.66,3.84,7.85,6.55c-1.38,0.14-2.68-0.02-3.81-0.95c-3.13-2.56-8.23-4.02-6.26-9.61
		C687.75,660,697.29,660.97,700.47,663.61z"/>
	<path class="st20" d="M604.73,440.59c-4.91,1.88-10.22,1.08-15.23,2.28c-3.51,0.35-7.02,1.95-10.52-0.02
		c0.99-2.15,2.89-2.25,4.9-2.25C590.83,440.61,597.78,440.59,604.73,440.59z"/>
	<path class="st11" d="M663.07,653.17c7.17-0.27,14.23,0.56,21.21,2.18c-5.76,0.04-11.52,0.08-17.29,0.11
		C665.25,655.47,663.4,655.62,663.07,653.17z"/>
	<path class="st11" d="M685.27,655.5c6.01-0.01,12.12-0.84,17.77,2.14c-4.62,0.05-9.23,0.11-13.85,0.15
		C687.44,657.81,685.59,657.96,685.27,655.5z"/>
	<path class="st20" d="M721.49,438.2c-7.15,0.32-14.16-0.58-21.1-2.27c5.16-0.01,10.32-0.04,15.48-0.02
		C718.03,435.92,720.06,436.34,721.49,438.2z"/>
	<path class="st11" d="M630.43,646.02c5.57,1.18,11.22,2.09,16.4,4.67C640.7,651.46,635.32,649.6,630.43,646.02z"/>
	<path class="st20" d="M558.04,445.33c-5.29,1.98-10.79,2.51-16.39,2.3C546.59,443.11,552.54,445.86,558.04,445.33z"/>
	<path class="st11" d="M646.79,650.67c5.21,0,10.29,0.91,15.28,2.36c-3.57,0.04-7.14,0.06-10.71,0.12
		C649.35,653.18,647.59,652.82,646.79,650.67z"/>
	<path class="st25" d="M923.73,156.78c-0.04-3.55-0.09-7.11-0.13-10.66C927.13,149.63,927.34,153.18,923.73,156.78z"/>
	<path class="st24" d="M824.3,752.44c2.38-2.67,4.76-5.35,7.14-8.02c0.72-0.07,1.44-0.14,2.16-0.21
		C830.9,747.41,828.68,751.15,824.3,752.44z"/>
	<path class="st11" d="M713.29,666.03c-3.71-0.04-7.33-0.48-10.65-2.29C706.25,664.19,710.51,661.68,713.29,666.03z"/>
	<path class="st11" d="M706.3,657.81c3.37-0.06,6.74-0.1,9.58,2.17C712.56,659.85,708.78,661.7,706.3,657.81z"/>
	<path class="st19" d="M748.29,924.05c1.2-3.65,2.01-7.48,4.74-10.43C753.12,917.86,751.39,921.27,748.29,924.05z"/>
	<path class="st11" d="M723.75,668.47c-3.66-0.12-7.16-0.88-10.48-2.45C716.84,666.51,721.1,664.04,723.75,668.47z"/>
	<path class="st19" d="M730.91,959.25c0.63-3.24,1.93-6.12,4.54-8.27C735.56,954.62,733.43,957.04,730.91,959.25z"/>
	<path class="st19" d="M742.64,937.1c0.85-3.46,1.61-6.97,4.45-9.5C746.46,931.16,745.75,934.69,742.64,937.1z"/>
	<path class="st11" d="M696.96,672.99c2.71,1,5.28,2.22,7.08,4.63C700.62,677.7,698.21,676.22,696.96,672.99z"/>
	<path class="st26" d="M578.98,442.85c3.51,0.01,7.01,0.01,10.52,0.02c0,0.38,0,0.76,0,1.15c-1.85,0.05-3.71,0.1-5.56,0.14
		c-2.15,0.54-4.29,0.91-6.36-0.26c0.15-0.29,0.28-0.59,0.39-0.9C578.3,442.99,578.64,442.94,578.98,442.85z"/>
	<path class="st11" d="M560.21,1090.08c2.03,2.27,4.06,4.53,6.09,6.8c1.02,4.77,4.81,7.62,7.85,10.89
		c3.96,4.25,8.17,8.27,11.66,12.94c0.78,1.04,2.4,1.87,1.76,3.38c-0.8,1.88-2.72,0.96-4.15,1.01c-5.9,0.19-11.21-2.45-16.8-3.72
		c-7.14-1.63-14.14-3.84-21.2-5.8c-12.2-2.37-23.79-6.72-35.47-10.8c-25.29-8.84-49.92-19.21-73.52-31.95
		c-2.68-1.45-6.67-2.29-6.95-5.48c-0.33-3.71,3.85-5.1,6.55-6.65c10.11-5.79,20.78-10.41,31.66-14.57
		c5.59-2.13,11.18-4.34,16.23-7.63c9.26-6.44,12.83-16.76,17.83-26.11c1.5-2.81,1.92-7.03,6.02-6.99c4.23,0.04,4.6,4.42,5.57,7.28
		c6.92,20.34,17,38.9,30,55.99C548.85,1075.92,554.09,1083.34,560.21,1090.08z"/>
	<path class="st10" d="M484.75,1038.77c-5.8,5.21-13.38,6.74-20.24,9.72c-10.27,4.47-20.68,8.66-30.23,14.58
		c-5.47,3.4-5.49,4.63,0.2,7.6c19.73,10.28,39.84,19.67,60.7,27.52c16.6,6.25,33.55,11.41,50.24,17.39
		c-0.63,0.14-1.27,0.28-1.91,0.43c-4.35,0.07-7.99-3.34-12.49-2.51c-33.73-11.94-67.48-23.81-98.7-41.7
		c-6.6-3.78-6.74-5.24-0.73-9.45c12.29-8.6,26.44-13.29,40.07-19.08c3.73-1.58,7.44-3.19,11.16-4.78
		C483.56,1038,484.2,1038.1,484.75,1038.77z"/>
	<path class="st27" d="M702.45,1040.71c1.21,1.41,2.68-3.58,3.79,0.15c-11.36,15.31-22.71,30.63-34.11,45.92
		c-0.91,1.22-2.1,2.22-3.16,3.32c-0.18-2.87,2.18-4.61,3.51-7.73c-1.6,0.76-2.62,1.24-3.65,1.72c-1.53-2.88,0.92-4.25,2.35-5.9
		c8.76-10.16,17.68-20.18,25.79-30.89c0.94-1.24,1.93-2.44,2.53-3.9C700.2,1042.21,700.83,1040.91,702.45,1040.71z"/>
	<path class="st9" d="M486.72,1104.02c6.23,0.77,12.29,2.05,17.54,5.76C498.09,1108.85,492.28,1106.81,486.72,1104.02z"/>
	<path class="st9" d="M475.04,1099.34c4.72-0.5,8.36,1.67,11.68,4.67C482.6,1103.01,478.62,1101.67,475.04,1099.34z"/>
	<path class="st9" d="M514.62,1112.34c2.93,0.1,6.25-1.31,8.33,2.13C519.91,1114.79,517.16,1113.98,514.62,1112.34z"/>
	<path class="st11" d="M387.41,647.31c-7.32-18.05-18.72-34.66-21.29-54.39c-4.44-34.14,2.95-65.39,29.26-88.91
		c16.64-14.88,36.98-24.74,58.33-32.06c11.86-4.07,23.62-8.42,35.76-11.59c13.67-3.57,27.47-6.46,41.5-8.22
		c11.58,0.57,22.77-1.95,33.97-4.36c0.57-0.12,1.17-0.27,1.73-0.2c12.62,1.54,24.81-3.12,37.4-2.48c5.22,0.27,10.3,1.83,15.61,1.31
		c4.7-0.47,9.19-1.41,13.78-2.53c7.8-1.9,16.75-3.41,24.71,1.45c0.94,0.57,2.15,0.93,3.25,0.97c3.22,0.12,7.49,0.73,7.88,3.55
		c0.62,4.37,3.9,9.34-1.53,13.75c-3.4,2.76-5.83,6.6-6.22,11.91c-0.28,3.83-3.64,7.48-5.8,11.1c-2.66,4.45-5.51,8.79-8.28,13.18
		c-0.41,0.66-0.68,1.71-1.25,1.92c-10.13,3.7-12.55,14.92-20.7,20.92c-7.91,5.82-13.66,14.5-21.04,21.16
		c-5.84,5.27-10.95,10.8-14.42,17.88c-0.71,1.45-2.4,3.28-3.77,3.39c-7.33,0.59-7.67,6.24-8.34,11.31
		c-0.39,2.93-0.95,5.21-3.67,6.71c-3.82,2.11-1.52,7.58-5.2,9.88c-0.08,0.05,0.48,1.35,0.53,1.34c4.13-1.2,7.89,5.37,12.18,0.6
		c1.14-1.27,2.72-1.48,4.3-1.33c5.32,0.49,9.7-0.64,11.16-7.97c1.14,5.44-2.82,9.93-7.98,10.16c-3.32,0.15-5.84,0.8-8.09,3.46
		c-1.52,1.8-3.55,3.36-6.57,1.32c-2.88-1.95-7.98,1.19-9.92-4.06c-0.18-0.48-2.57,1.38-3.02,2.84
		c-4.32,14.07-14.87,20.94-28.17,24.82c-1.98,0.58-4.05,1.69-5.5,3.14c-5.96,5.97-14.25,9.9-16.76,18.92c0.59,2.92-1.94,4-3.45,5.56
		c-8.84,9.19-18.24,17.82-26.76,27.32c-0.02,0.32-0.14,0.59-0.36,0.81c-3.53,4.4-8.14,7.77-11.44,12.43
		c-6.87,9.71-8.38,21.15-10.51,32.31c-3.46,18.09-5.65,36.39-8.21,54.62c-0.16,1.15-0.07,2.33-0.48,3.45
		c-0.47,1.31-1,2.58-2.55,2.91c-1.58,0.34-2.63-0.51-3.35-1.76c-2.38-4.2-5.17-8.09-7.38-12.47
		c-12.16-24.19-20.49-49.79-28.81-75.42c-4.68-14.42-10.91-28.21-17.76-41.71C389.04,651.98,388.92,649.38,387.41,647.31z"/>
	<path class="st11" d="M481.06,679.08c0.14-2.81,2.3-4.31,4.01-6.06c8.71-8.96,17.46-17.88,26.19-26.81
		c3.24-1.15,5.33-3.97,7.38-6.27c7.51-8.44,17.71-12.4,27.32-17.22c20.05-10.05,40.25-19.84,60.63-29.2
		c15.83-7.27,32.27-13.13,48.85-18.49c1.88-0.61,3.5-1.57,5.28-2.24c1.32-0.5,2.99-0.56,3.68,0.8c1,1.97-1.01,1.95-2.12,2.52
		c-17.92,9.22-35.15,19.6-51.44,31.47c-7.68,5.59-15.25,11.33-22.86,17.01c-1.04,0.78-2.94,1.27-2.51,2.82
		c0.56,2.02,2.66,1.25,4.03,1.1c12.72-1.41,25.32-3.62,37.86-6.19c17.61-3.6,35.05-7.92,52.54-12.03
		c20.31-4.77,40.82-8.65,61.6-11.3c19.86-2.52,39.71-5.44,59.66-3.92c16.52,1.26,33.14,3.64,46.8,14.83
		c5.16,4.23,8.36,9.66,10.82,15.63c0.8,1.93,1.15,4.36-0.96,5.87c-1.84,1.31-3.56,0.23-5.37-0.75
		c-10.22-5.53-20.93-9.95-31.95-13.61c1.65-0.3,3.46,0.3,4.97-0.84c2.14-1.88,4.04-0.07,5.84,0.59c6.36,2.35,12.48,5.29,18.56,8.29
		c1.53,0.49,3.08,2.55,4.55,0.98c0.93-1-1-2.2-1.68-3.31c-5.23-9.91-13.89-15.61-24.22-18.65c-17.09-5.03-34.57-6.62-52.33-4.53
		c-3.48,0.41-6.97,0.32-10.46,0.34c-11.45-0.03-22.62,2.25-33.86,4.02c-13.77,2.17-27.32,5.47-41.07,7.68
		c-0.55,0.22-1.13,0.38-1.72,0.5c-3.3,0.4-6.57,1.01-9.77,1.96c-0.51,0.18-1.03,0.32-1.55,0.44c-2.62,0.38-5.12,1.25-7.6,2.14
		c-0.51,0.17-1.04,0.29-1.57,0.37c-2.74,0.07-5.33,0.73-7.79,1.95c-0.81,0.28-1.64,0.44-2.49,0.53c-2.96-0.12-5.69,0.76-8.34,1.98
		c-0.6,0.21-1.2,0.34-1.83,0.42c-8.97,1.98-18.06,3.24-27.06,5.01c-8.92,1.76-17.96,3.51-27.14,3.87l-0.48-0.03l-0.44,0.19
		c-1.43,1.29-3.21,1.21-4.93,1.13c-2.8-0.13-6.3,0.54-7.13-3.24c-0.77-3.52,2.13-4.99,4.74-6.36c0.51-0.27,1.02-0.55,1.51-0.84
		l-0.01,0.01c5.52-4.71,11.42-8.91,17.49-12.89c10.23-8.65,22.24-14.58,33.36-21.86c2.58-1.69,5.23-3.26,7.37-6.03
		c-5.76,2.12-11.52,4.25-17.29,6.35c-22.22,8.07-43.16,18.98-64.36,29.29c-11.28,5.48-22.53,11.02-33.57,16.96
		c-9.22,4.96-15.26,13.65-22.68,20.71c-7.15,6.81-13.86,14.07-20.9,21C485.02,676.72,483.63,678.81,481.06,679.08z"/>
	<path class="st11" d="M387.28,649.92c0.04-0.87,0.09-1.74,0.13-2.61c5.63,7.91,8.8,17.08,12.91,25.74
		c7.51,15.81,11.7,32.84,17.46,49.3c6.83,19.55,14.37,38.84,24.61,56.93c0.76,1.35,1.66,2.62,2.55,3.89
		c0.56,0.78,1.19,1.63,2.33,1.4c1.39-0.29,1.69-1.44,1.85-2.63c1.65-12.27,3.11-24.57,5-36.81c2.41-15.69,4.11-31.61,10.25-46.42
		c3.27-7.89,8.7-14.44,16.32-18.82c0.06,2.98-2.47,4.33-4.18,5.95c-7.47,7.1-11.66,15.82-13.87,25.76
		c-4.71,21.26-7.54,42.81-10.25,64.38c-0.31,2.5-0.98,4.95-1.49,7.42c-0.39,1.85-0.18,4.27-2.52,4.81
		c-2.79,0.63-4.05-1.71-5.41-3.61c-4.62-6.48-7.62-13.83-11.14-20.9c-10.55-21.22-17.08-43.93-24.69-66.25"/>
	<path class="st10" d="M484.75,1038.77c-0.64-0.1-1.27-0.19-1.91-0.29c9.05-7.33,13.45-17.68,18.32-27.78
		c1.52-3.14,2.6-7.92,6.84-7.75c3.86,0.16,4.99,4.68,6,7.84c8.69,27.31,23.99,50.74,42.02,72.63c1.65,2.01,3.74,3.85,4.2,6.66
		c-6.31-3.24-9.3-9.61-13.49-14.74c-12.27-15.04-21.84-31.82-29.88-49.45c-2.16-4.73-3.62-9.79-5.26-14.74
		c-0.68-2.08-1.22-4.56-3.55-4.84c-2.53-0.3-3.08,2.23-4.04,4.18c-3.07,6.23-6.27,12.39-9.63,18.46
		C492.1,1033.06,488.99,1036.5,484.75,1038.77z"/>
	<path class="st19" d="M700.54,1043.5c-1.44,4.71-4.98,8.05-7.95,11.67c-7.08,8.64-14.46,17.03-21.75,25.5
		c-0.89,1.03-1.86,1.98-2.01,3.43c-3.23,1.76-4.49,5.69-7.93,7.22c-0.07-0.45-0.14-0.9-0.21-1.35c0.34-4.98,4.62-7.43,7.38-10.62
		c9.36-10.85,18.53-21.85,27.52-33.01C696.8,1044.83,697.71,1042.37,700.54,1043.5z"/>
	<path class="st11" d="M593.92,630.78c13.64-2.66,27.25-5.47,40.92-7.91c4.73-0.85,9.24-3.1,14.23-2.47
		c-0.61,3.53-3.57,4.19-6.26,4.53c-3.75,0.47-7.48,1.15-11.27,1.34c-7.74,0.49-15.23,2.24-22.72,4.13
		C603.96,631.61,598.9,631.03,593.92,630.78z"/>
	<path class="st11" d="M631.54,626.25c1.1-2.38,3.26-2.49,5.38-2.28c4.57,0.47,8.57-0.81,12.15-3.59c0.3-0.18,0.61-0.21,0.93-0.1
		c1.1-0.52,2.23-0.59,3.41-0.32c1.69,2.47-0.78,2.84-1.95,3.87c-6.33,3-13.29,3.9-19.92,5.89
		C632.29,628.57,632.25,627.41,631.54,626.25z"/>
	<path class="st11" d="M587.2,621.62c-1.38,2.89-7.15,3.46-5.52,7.28c1.61,3.76,6.29,1.39,9.59,1.88c0.58,0.09,1.16,0.11,1.74,0.16
		c-3.04,4.45-6.95,2.03-10.6,1.29c-2.59-0.52-2.59-2.71-2.25-4.57C580.84,623.88,583.03,621.51,587.2,621.62z"/>
	<path class="st11" d="M604.67,608.73c-5.09,5.3-11.13,9.3-17.49,12.89C591.84,615.73,597.66,611.42,604.67,608.73z"/>
	<path class="st27" d="M650.98,1103.79c1.04-2.46,2.79-4.33,4.91-5.89C656.23,1101.51,654.46,1103.36,650.98,1103.79z"/>
	<path class="st27" d="M627.78,1128.4c2.02-1.53,3.19-4.19,6.08-4.55C632.8,1126.65,631.38,1128.99,627.78,1128.4z"/>
	<path class="st27" d="M610.47,1126.46c2.95,0.1,5.77,0.79,8.47,1.96C616.03,1128.15,612.55,1130.33,610.47,1126.46z"/>
	<path class="st11" d="M740.56,181.39c18.22,0.47,35.62-3.74,53.01-8.6c14.86-4.15,30.12-5.62,45.28-1.4
		c17.25,4.8,32.41,1.07,46.05-10.09c7.65-4.94,15.02-10.25,21.76-16.41c2.93-2.68,6.15-4.37,9.99-2.2c3.9,2.21,6.79,5.18,5.87,10.28
		c-1.25,6.87-3.68,13.39-5.97,19.94c-5.24,14.98-10.75,29.87-14.08,45.46c-0.52,2.44-1.46,4.8-2.2,7.2
		c-3.72,9.2-4.3,19.05-5.85,28.7c-0.27,1.71-0.19,3.51-0.02,5.25c1.44,14.36-1.71,28.55-3.16,42.6c-0.87,8.44,1.35,18.28-4.62,26.32
		c-1.04,1.4-2.44,4.96,0.05,7.5c0.99,1.01,0.53,2.16-0.59,2.95c-0.97,0.69-2.29,1.53-2,2.67c2.39,9.27-7.71,14.41-7.51,22.98
		c0.04,1.69-1.79,2.76-3.48,2.08c-4.41-1.79-4.56,0.87-4.39,3.94c0.14,2.66-0.4,5.3,1.34,7.86c2.15,3.16-0.08,6.6-2.47,7.12
		c-2.23,0.48-6.56-0.27-6.9-4.31c-0.36-4.25-0.25-8.56,0.05-12.82c0.16-2.18,1.57-4.61,4.01-4.2c3.5,0.59,4.01-0.81,4-3.69
		c-0.01-3.31-0.92-5.92-4.55-6.31c-2.89-0.31-5.83-0.15-8.75-0.1c-3.19,0.06-6.22-0.04-8.28-3.1c-1.44-2.14-3.82-1.57-5.9-1.57
		c-13.82-0.03-27.63-0.02-41.45-0.02c-1.17,0-2.4,0.24-3.49-0.04c-5.4-1.38-10.03-1.78-14.39,3.38c-2.42,2.87-7.39,1.78-11.15,0.74
		c-4.43-1.22-7.52-0.29-9.57,4.03c-1.88,3.97-5.27,4.98-9.54,6.22c-10.75,3.13-21.17,7.61-29.74,15.31
		c-0.99,0.89-1.91,2.14-3.09,2.5c-2.92,0.89-3.23,2.05-1.41,4.47c0.9,1.19,1.23,3.12-0.76,3.91c-1.55,0.62-2.93-0.55-3.14-1.84
		c-1.04-6.47-7.59-8.58-10.49-13.99c-6.17-11.49-13.48-22.47-20.7-33.36c-5.41-8.17-7.68-18.07-14.71-25.18
		c-5.83-9.81-9.86-20.45-14.29-30.92c-5.24-12.4-9.06-25.26-11.6-38.36c-2.09-10.79-3.41-21.99-0.62-32.96
		c2.59-10.17,11.55-13.37,19.98-16.85c19-7.83,38.96-11.25,59.34-12.79C727.14,183.16,733.84,182.16,740.56,181.39z"/>
	<path class="st11" d="M606.64,570.97c10.32-4.56,19.93-8.67,29.42-13.02c18.65-8.56,37.97-15.41,57.33-22.05
		c27.18-9.33,55.08-17.09,83.8-17.55c21.59-0.35,44.13-0.68,63.73,11.93c0.48,0.31,1.19,0.29,1.61,0.65
		c1.4,1.22,4.07,2.15,3.32,4.21c-0.78,2.17-3.45,1.32-5.18,0.88c-10.55-2.68-21.17-4.37-32.1-4.7c-17.24-0.51-34.4-0.92-51.53,1.91
		c-38.25,6.3-75.53,16.32-112.28,28.47c-10.49,3.47-21.05,6.71-31.57,10.09C611.33,572.38,609.54,573.11,606.64,570.97z"/>
	<path class="st11" d="M816.1,494.9c-19.48-2.23-39.11-2.34-58.64-3.71c-19.42-1.36-38.78,1.56-58.18,1.36
		C738.42,483.38,777.49,478.33,816.1,494.9z"/>
	<path class="st11" d="M804.51,663.49c0.81,0.39,1.62,0.78,2.43,1.17c13.94,7.29,24.34,17.58,28.36,33.32
		c0.53,2.07,1.48,4.46-1.01,5.67c-2.32,1.13-3.31-1.31-4.58-2.64c-5.49-5.71-10.26-12.13-16.57-17.05
		c-9.3-9.73-20.24-17.14-32.25-23.12c-1.45-0.72-4.46-0.98-3.54-3.67c0.78-2.28,3.22-1.85,5.07-1.35
		C789.96,657.85,798.05,658.34,804.51,663.49z"/>
	<path class="st11" d="M733.45,403.88c1.01-2.83,3.17-3.33,4.82-3.74c19.31-4.8,38.69-6.62,57.76,0.89
		c8.8,3.46,15.28,10.5,22.64,16.15c1.07,0.82,2.49,2.44,1.3,3.98c-1.03,1.33-2.53,0.19-3.7-0.41c-9.43-4.87-19.37-8.37-29.55-11.27
		c-13.67-3.89-27.56-5.97-41.82-5.25C741.16,404.4,737.36,404.89,733.45,403.88z"/>
	<path class="st11" d="M778.77,552.59c24.64-0.76,46.95,4.4,67.99,15.13c0.52,0.26,1.18,0.31,1.6,0.67
		c1.29,1.08,3.67,2.03,3.05,3.78c-0.82,2.36-3.2,1.35-5.08,0.9c-13.34-3.23-26.57-7.18-40.08-9.44c-12.73-2.13-25.3-5.43-38.26-6.24
		c-2.1-0.13-4.17-0.82-6.26-1.2c-1.63-0.29-4.41,0.35-4.29-1.78c0.14-2.48,3.02-1.76,4.82-1.79
		C768.11,552.53,773.94,552.59,778.77,552.59z"/>
	<path class="st11" d="M804.51,663.49c-8.57-2.8-16.88-6.8-26.34-5.99c12.74,7.6,25.94,14.37,35.61,25.99
		c0.53,0.53,0.49,1.01-0.14,1.42c-5.27-4.25-10.4-8.68-15.83-12.7c-8.46-6.26-17.78-11.03-27.54-14.91
		c-2.2-0.88-4.21-1.87-5.88-3.55c0.38-1.94,1.98-1.84,3.17-1.64c11.6,1.9,23.22,3.74,34.27,7.97
		C803.31,660.64,804.58,661.59,804.51,663.49z"/>
	<path class="st11" d="M748.65,409.71c-0.79,4.68-5.24,4.08-8.18,4.67c-6.08,1.22-13.46-4.11-15.57-10.29
		c-0.29-0.85-0.95-1.6-1.55-2.3c-0.5-0.58-1.26-0.95-1.73-1.55c-1.76-2.24-2.13-4.77,0.01-6.78c1.07-1,2.8-3.22,4.26-1.9
		c2.02,1.83,4.49,4.61,2.37,7.54c-2.84,3.92-0.22,6.27,1.96,8.43c2.04,2.02,4.75,2.73,6.66-0.71c0.2-0.35,0.92-0.41,1.4-0.6
		C739.76,413.38,745.63,406.79,748.65,409.71z"/>
	<path class="st11" d="M813.63,684.91c0.05-0.47,0.1-0.95,0.14-1.42c7.77,5.37,12.96,13.41,20.85,20.89
		c-0.09-10.79-4.42-18.09-10.12-24.95c-4.99-6.01-11.97-9.54-17.57-14.77c5.06-0.37,8.03,3.45,11.46,6.04
		c9.93,7.48,16.26,17.38,18.61,29.67c0.43,2.25,1.08,5.11-1.62,6.15c-2.22,0.85-3.75-1.39-5.16-2.97
		C824.69,697.33,819.16,691.12,813.63,684.91z"/>
	<path class="st11" d="M693.41,481.82c-0.58-4.61,1.25-6.66,5.9-6.3c2.27,0.18,4.57,0.31,6.67-1.25c2.13-1.58,4.63-1.74,5.78,1.09
		c1.14,2.8,0.32,5.67-2.7,6.75c-3.93,1.4-7.86,2.43-11.68,4.44C693.39,488.65,693.9,484.14,693.41,481.82z"/>
	<path class="st11" d="M670.85,450.09c3.33-1.62,5.23-3.19,5.41-6.61c0.14-2.68,3.18-3.41,5.49-2.67c2.76,0.88,7.19,0.24,7.56,4.07
		c0.31,3.25-3.03,3.27-5.03,1.86c-2.74-1.93-4.79-1.11-5.47,1.38C677.45,453.1,674.7,451.21,670.85,450.09z"/>
	<path class="st11" d="M697.82,499.63c1.92-0.12,3.49,0.43,4.2,1.84c1.11,2.21-1.32,2.25-2.34,3.13c-2.42,2.07-5.45,2.7-8.41,3.39
		c-2.28,0.53-3.86-0.97-4.33-2.88c-0.47-1.92,1.42-2.35,2.93-2.82C692.61,501.43,695.32,500.47,697.82,499.63z"/>
	<path class="st11" d="M651.58,544.12c-2.42,2.26-4.85,1.12-6.61,2.62c-2.8,2.39-4.09-0.57-5.45-2.13c-1.35-1.54-1.7-3.83-0.11-5.22
		c1.66-1.45,4.03-1.1,5.96-0.04C647.67,540.62,648.23,543.69,651.58,544.12z"/>
	<path class="st11" d="M773.63,379.78c1.36-0.01,3.8,0.23,3.65,2.72c-0.23,3.75-3.45,4.92-6.63,5.32c-2.35,0.3-3.72-1.27-3.47-3.6
		C767.54,380.91,769.83,379.72,773.63,379.78z"/>
	<path class="st28" d="M811.75,466.46c3.07,1.38,6.47,1.85,9.93,2.21c1.64,0.17,2.84,1.45,2.27,3.31c-0.53,1.71-2.18,1.57-3.38,1.08
		c-3.37-1.39-7.34-0.78-10.4-3.09c-0.88-0.66-2.14-1.43-1.6-2.74C809.12,465.87,810.5,466.39,811.75,466.46z"/>
	<path class="st11" d="M683.07,490.48c-1.75-0.53-3.55-1.72-3.1-3.1c1.07-3.25,4.58-3.75,7.35-4.47c1.58-0.41,3.74,1.49,3.24,3.24
		C689.55,489.74,685.64,489.21,683.07,490.48z"/>
	<path class="st11" d="M629.46,554.88c-2.59-0.09-5.09-1.33-5.37-3.81c-0.21-1.88,2.57-2.89,4.38-2.82
		c2.93,0.12,5.26,2.98,5.59,4.91C634.53,556.01,630.99,553.64,629.46,554.88z"/>
	<path class="st11" d="M717.88,449.2c-0.47,2.76-2.47,3.12-4.74,2.93c-2.74-0.23-3.42-2.06-3.28-4.45c0.12-2.07,1.32-2.85,3.07-1.98
		C714.73,446.6,718.06,445.49,717.88,449.2z"/>
	<path class="st11" d="M677.83,521.06c2.51,0.18,4.76,0.17,4.58,2.49c-0.19,2.39-2.26,3.4-4.63,3.38c-1.8-0.02-3.85-0.21-3.7-2.56
		C674.24,521.82,676.09,520.84,677.83,521.06z"/>
	<path class="st16" d="M895.5,287.46c0.4,8.68-0.43,17.25-2.3,25.73C892.82,304.51,893.29,295.9,895.5,287.46z"/>
	<path class="st11" d="M623.48,575.06c-2.53,2.08-3.58,4.02-4.68,5.97c-0.96,1.71-2.38,1.72-3.69,0.11c-1.2-1.49-0.69-2.54,0.88-3.1
		C618.13,577.28,619.5,574.96,623.48,575.06z"/>
	<path class="st11" d="M828.9,461.45c-0.8,3.16-0.11,4.74,3.68,5.04c2.66,0.22,5.7,0.17,8.06,2.07c-3.22-0.07-6.47,0.14-9.64-0.28
		C826.54,467.71,825.89,465.29,828.9,461.45z"/>
	<path class="st11" d="M583.69,581.69c-2.19,0.01-3.3-0.96-3.35-2.75c-0.04-1.5,0.89-2.58,2.45-2.7c1.86-0.15,2.94,0.93,3.02,2.71
		C585.88,580.51,584.77,581.3,583.69,581.69z"/>
	<path class="st11" d="M745.34,391.92c-1.05,2.08-2.64,1.79-3.8,2.34c-1.21,0.58-2.57,1.19-3.75,0.15c-0.3-0.26-0.02-1.43,0.27-2.05
		c0.77-1.67,2.03-2.07,3.78-1.32C742.86,391.48,744.02,391.6,745.34,391.92z"/>
	<path class="st11" d="M607.36,564.65c-2.82-1.45-4.57-2.88-4.44-5.7c0.02-0.33,0.99-0.99,1.26-0.88
		C606.89,559.2,607.28,561.48,607.36,564.65z"/>
	<path class="st29" d="M887.26,623.97c2.18,6.2,1.9,12.41,0.14,18.64C887.35,636.4,887.3,630.18,887.26,623.97z"/>
	<path class="st11" d="M605.68,579.97c-0.08,1.67-0.9,2.67-2.43,2.88c-1.23,0.17-2.56-0.27-2.43-1.7c0.13-1.42,1.41-2.26,2.81-2.56
		C604.76,578.35,605.42,578.97,605.68,579.97z"/>
	<path class="st30" d="M577.57,443.9c2.12,0.09,4.24,0.17,6.36,0.26c-5.05,1.46-10.16,2.49-15.46,2.2c0-0.35,0.01-0.7,0.01-1.05
		C571.51,444.84,574.54,444.37,577.57,443.9z"/>
	<path class="st11" d="M679.86,506.17c0.04,1.26-0.69,1.85-1.77,1.74c-1.16-0.12-2.36-0.61-2.78-1.78c-0.4-1.12,0.49-1.94,1.46-2.09
		C678.35,503.78,679.17,504.97,679.86,506.17z"/>
	<path class="st11" d="M611.44,575.44c-0.16,1.12-0.87,1.63-1.94,1.63c-1.26,0-2.34-0.35-2.14-1.9c0.15-1.19,1.15-1.35,2.14-1.35
		C610.58,573.82,611.28,574.32,611.44,575.44z"/>
	<path class="st11" d="M618.45,550.91c-0.16,1.12-0.87,1.63-1.95,1.63c-1.26,0-2.34-0.35-2.14-1.91c0.15-1.19,1.15-1.37,2.15-1.36
		C617.59,549.29,618.29,549.79,618.45,550.91z"/>
	<path class="st11" d="M677,497.72c-0.03,1.01-0.28,1.95-1.45,2.09c-1.14,0.13-1.76-0.53-1.74-1.67c0.02-1.05,0.58-1.91,1.57-2.13
		C676.65,495.73,676.95,496.68,677,497.72z"/>
	<path class="st11" d="M612.75,556.04c0.02,1.04-0.26,2.04-1.47,1.91c-0.97-0.1-1.6-0.96-1.7-2.01c-0.11-1.15,0.47-1.89,1.58-1.86
		C612.27,554.12,612.74,554.96,612.75,556.04z"/>
	<path class="st11" d="M731.24,450.97c1.19-2.23,1.99-3.61,3.94-2.81c0.38,0.15,0.83,1.05,0.7,1.37
		C735.06,451.41,733.43,450.91,731.24,450.97z"/>
	<path class="st31" d="M700.54,1043.5c-4.16,2.67-6.37,7.11-9.48,10.71c-10.24,11.82-20.26,23.83-30.36,35.77
		c-8.98,7.25-14.77,17.42-23.08,25.28c-4.11,3.88-6.37,10.73-12.98,10.66c-10.51-0.11-20.88-1.31-28.08-10.9
		c-15.48-20.62-33.17-39.51-47.87-60.74c-14.46-20.9-25.53-43.19-29.54-68.7c-2.26-14.33-9.47-26.95-16.09-39.66
		c-12.21-23.43-20.6-48.31-28.26-73.49c-5.59-18.39-9.64-37.07-11.8-56.17c-1.08-9.51-0.87-18.98,0.35-28.47
		c1.61-12.49,2.75-25.05,4.62-37.5c2.14-14.17,4.72-28.28,7.39-42.37c1.43-7.54,6.28-13.41,11.31-18.75
		c13.97-14.84,27.95-29.69,43.51-42.94c5.47-4.66,11.06-6.32,18.63-5.03c23.64,4.02,47.18,8.57,70.34,14.62
		c16.54,4.32,33.22,8.63,48.81,16.04c1.37,0.65,2.97,0.83,4.46,1.23c9.53,5.29,19.77,9.32,28.49,16.03
		c6.56,5.04,12.94,10.31,19.41,15.48c11.14,11.64,22.54,23.03,32.75,35.53c12.35,15.12,19.91,32.58,25.01,51.15
		c1.91,6.96,1.45,14.48,0.23,21.46c-5.88,33.59-13.77,66.69-26.65,98.39c-7.05,17.35-15.19,34.19-24.68,50.36
		c-0.85,1.45-2.14,2.84-1.87,4.77c-4.03,5.86-7.1,11.65-4.93,19.41c4.79,17.14-2.72,31.45-11.53,45.3
		c-2.06,3.25-4.87,6.03-6.18,9.75C701.81,1041.64,701.17,1042.57,700.54,1043.5z"/>
	<path class="st11" d="M765.87,598.33c15.11-1.47,30.28-2.02,45.32,0.01c12.49,1.69,24.67,4.93,34.97,12.99
		c3.95,3.09,6.2,7.26,8.47,11.5c0.92,5.03,0.92,5.03-4.95,3.59c-8.07-3.41-16.15-6.82-24.22-10.23c-0.94-0.16-1.96-0.13-2.5-1.16
		c-5.75-3.15-12.23-3.73-18.44-5.28c-9.73-2.44-19.69-2.56-29.6-3.19c-4.12-0.02-8.24-0.05-12.36-0.07
		c-7.48,1.06-15.07-0.08-22.53,1.08c-8.31,1.3-16.75,1.68-25.01,3.5c-2.54,0.56-6.66,2.51-7.58-0.91c-0.95-3.56,4.21-3.58,5.95-3.7
		c10.64-0.73,20.63-5.01,31.3-5.35C751.83,600.89,758.77,598.94,765.87,598.33z"/>
	<path class="st11" d="M765.87,598.33c-5.02,2.16-10.49,2.96-15.73,3.15c-8.63,0.32-16.74,2.26-25.01,4.43
		c-5.56,1.46-11.86-0.04-16.9,4.59c18.05-2.21,36.04-5.49,54.32-4c-10.97,1.09-21.98,1.93-32.91,3.34
		c-14.81,1.9-29.52,4.39-43.9,8.57c-2.01,0.59-4.2,0.57-6.3,0.83c-1.46-1.74,2.43-4.6-1.22-5.88c3.33-1.49,6.84-2.25,10.47-2.42
		c0.47,0.56,0.79,1.26,1.48,1.62c-0.26-0.78-1.2-0.91-1.54-1.61c9.8-2.21,19.53-4.78,29.41-6.53c13.17-2.33,26.45-4.08,39.7-5.93
		C760.41,598.11,763.16,598.37,765.87,598.33z"/>
	<path class="st11" d="M774.92,606.56c16.05-1.3,31.48,1.58,46.52,6.95c0.61,0.22,1.02,1,1.52,1.52
		C807.26,610.46,791.09,608.49,774.92,606.56z"/>
	<path class="st11" d="M651.46,623.83c0.77-1.1,1.54-2.19,2.32-3.29c1.01-1.83,3.44-1.01,4.64-2.49c0.69-0.05,1.39-0.09,2.08-0.14
		c1.9-0.47,3.77-1.24,5.78-0.51c1.49,0.99,2.13,2.35,1.75,4.13c-2.55,1.72-6,0.29-8.45,2.38l-0.41,0.21c0,0-0.46-0.01-0.46-0.01
		C656.29,624.03,653.87,623.93,651.46,623.83z"/>
	<path class="st11" d="M678.21,613.36c1.96,0.12,3.84,0.44,5.32,2.06c-0.3,2.38-4.42,0.8-4.1,3.83l-0.45,0.19l-0.48-0.03
		c-1.94,0.48-3.86,1.34-5.9,0.37c-1.12-0.98-1.26-2.2-0.81-3.54c1.57-2.24,4.75-0.87,6.43-2.88L678.21,613.36z"/>
	<path class="st11" d="M659.58,623.93c1.54-4.39,5.45-1.44,8.04-2.59c0.35-0.28,0.73-0.34,1.14-0.13c0.1,0.19,0.2,0.37,0.3,0.56
		C666.1,623.34,662.94,624.06,659.58,623.93z"/>
	<path class="st11" d="M672.47,619.08c2.01,0.1,4.02,0.21,6.03,0.31c-2.72,2.48-6.25,1.75-9.44,2.36c0,0-0.3-0.39-0.3-0.39
		C669,618.98,670.18,618.13,672.47,619.08z"/>
	<path class="st11" d="M672.47,619.08c-1.64,0.1-2.81,0.97-3.7,2.29c0,0-0.58,0.04-0.58,0.04s-0.57-0.08-0.57-0.08
		c-0.35-1.06-0.7-2.13-1.05-3.19c0.14-1.44,1.59-1.59,2.35-2.42c0.34-0.17,0.68-0.19,1.03-0.06c0.93-0.56,1.82-0.76,2.52,0.35
		C672.48,617.04,672.48,618.06,672.47,619.08z"/>
	<path class="st11" d="M849.68,626.43c2.23-0.39,6.02,1.35,4.95-3.59c1.55,1.49,3.27,3.66,1.53,5.26
		C853.91,630.18,851.69,627.76,849.68,626.43z"/>
	<path class="st11" d="M658.41,618.06c-0.86,2.12-2.68,2.43-4.64,2.48c-1.26-0.08-2.51-0.17-3.77-0.26
		C652.42,618.09,655.42,618.1,658.41,618.06z"/>
	<path class="st11" d="M668.93,615.73c-0.42,1.16-1.24,1.93-2.35,2.42c-2.03-0.07-4.05-0.15-6.08-0.22
		C662.95,615.81,665.88,615.54,668.93,615.73z"/>
	<path class="st11" d="M672.48,616.01c-0.84-0.12-1.68-0.23-2.52-0.35c2.55-1.51,5.27-2.42,8.27-2.32
		C677.66,617.15,674.42,615.18,672.48,616.01z"/>
	<path class="st11" d="M733.18,535.16c-0.68,0.06-1.35,0.11-2.03,0.17c-2.27,1.29-5.15,0.47-7.32,2.11
		c-1.05,0.08-2.1,0.16-3.15,0.25c-2.84,0.7-5.92,0.43-8.53,2.08c-24.5,5.55-48.12,14.34-72.59,20.1c8.74-5.46,18.41-8.5,27.84-12.15
		c17.52-6.78,35.27-12.85,53.38-17.86c1.3-0.36,2.66-0.45,4-0.67c3.88-1.11,8.16-0.21,11.83-2.37l-0.05,0.03
		c3.75-1.61,8.15,0.05,11.75-2.32l-0.03,0.03c22.91-4.84,45.87-3.21,68.85-0.57c2.43,0.28,4.26,1.77,6.6,2.11
		c1.59,0.23,4.25,0.25,3.84,2.54c-0.41,2.27-2.95,1.38-4.37,0.91c-5.89-1.95-11.93-1.37-17.92-1.4
		c-10.51-0.06-21.03-0.24-31.53,0.04C759.91,528.55,746.58,532.16,733.18,535.16z"/>
	<path class="st11" d="M733.18,535.16c4.87-4.15,11.22-3.12,16.83-4.55c21.88-5.58,44.29-3.25,66.52-3.57
		c1.87-0.03,3.78,0.75,5.62,1.3c1.58,0.48,3.09,1.43,5.24,0.1c-7.64-4.41-15.89-3.58-23.66-4.88c-11.52-1.92-23.18-1.37-34.79-1.25
		c-6.94,0.07-13.56,3.44-20.66,2.23c9.43-3.52,19.45-4.25,29.21-4.11c13.55,0.19,27.27,0.26,40.63,3.12
		c7.66,1.64,15.16,4.08,21.48,9.37c-1.71-0.12-3.48,0.01-5.12-0.39c-22.29-5.45-44.93-3.29-67.44-2.88
		c-7.86,0.15-15.69,2.56-23.5,4.08C740.11,534.4,736.71,535.22,733.18,535.16z"/>
	<path class="st11" d="M748.31,524.53c-3.17,4.53-7.8,1.68-11.75,2.32C740.19,524.59,744.19,524.26,748.31,524.53z"/>
	<path class="st11" d="M736.61,526.81c-3.31,3.97-7.78,2.13-11.83,2.37C728.56,527.58,732.45,526.48,736.61,526.81z"/>
	<path class="st11" d="M723.83,537.44c1.71-3.22,4.63-2.26,7.32-2.11C729.2,537.75,726.41,537.23,723.83,537.44z"/>
	<path class="st11" d="M712.14,539.76c2.13-3.62,5.53-2.04,8.53-2.08C718.04,539.25,715.2,539.93,712.14,539.76z"/>
	<path class="st11" d="M805.56,410.19c3.5,0.27,4.75,3.56,7.12,5.67c-20.41-7.77-41.32-13.14-64.24-14.6
		c2.86-2.11,4.91-1.61,6.81-1.81c5.02,0.28,10.09,0.14,15.03,1.33C782.64,401.68,794.06,406.08,805.56,410.19z"/>
	<path class="st11" d="M805.56,410.19c-4.68,2.15-8.25-1.68-12.24-2.67c-6.94-1.71-13.65-4.28-20.91-4.59
		c-0.69-0.03-1.35-0.62-2.02-0.94c0.46-2.85,2.79-2.31,4.56-2.28c4.03,0.08,8.07,0.31,12.05,1.02
		C794.44,401.42,799.6,406.58,805.56,410.19z"/>
	<path class="st32" d="M787,400.72c-5.5,0.9-11.25-1.5-16.61,1.26c-5.09-0.59-10.32-0.35-15.14-2.54
		C765.94,397.35,776.53,397.58,787,400.72z"/>
	<path class="st11" d="M810.16,562.12c-14.22-2.58-28.44-5.15-43.81-7.94c22.48-0.1,43.66,0.62,63.75,9.12
		c1.98,0.88,4.69,0.24,6.21,3.37c-5.35,1.38-9.78-1.75-14.52-2.16c-0.35,0.02-0.68-0.03-1.02-0.12
		C817.36,563.05,813.7,562.83,810.16,562.12z"/>
	<path class="st11" d="M821.78,564.52c4.52-1.13,8.4,1.98,12.84,2.03c-0.5-2.67-3.57-1.46-4.53-3.25c5.79-0.32,9.93,3.19,14.31,6.32
		C836.65,568.75,828.99,567.69,821.78,564.52z"/>
	<path class="st33" d="M810.16,562.12c3.74-0.19,7.47-0.32,10.61,2.27C816.97,564.86,813.54,563.6,810.16,562.12z"/>
	<path class="st34" d="M584.65,870.92c-5.6-6.81-3.81-17.4,5.25-23.05c8.44-5.26,10.26-12.48,10.32-21.23
		c0.1-14.98,0.24-29.95-1.6-44.87c-0.6-4.85-1.77-9.53-3.33-14.14c-4.57-13.46-16.55-14.48-27.84-16.21
		c-18.89-2.89-37.88-3.92-56.95-1.8c-3.23,0.36-3.3-1.6-2.01-3.61c6.66-10.41,15.26-18.61,28.23-19.2
		c14.18-0.64,28.43-0.56,42.61,0.01c14.62,0.59,21.1,11.45,26.48,23.07c6,12.96,5.1,26.97,5.46,40.65
		c0.35,13.4-0.33,26.84-0.81,40.25c-0.21,5.88-2.18,11.42-5.07,16.53c-2.35,4.15-6.1,6.26-10.92,6.8c-7.37,0.82-8.35,2.15-8.49,9.65
		C585.95,866.04,586.72,868.47,584.65,870.92z"/>
	<path class="st35" d="M736.33,750.13c-9.71-2.34-19.35-1.42-28.93-1.58c-16.97-0.28-33.74,1.6-50.31,5.16
		c-3,0.65-5.82,2.11-8.75,3.14c-3.19,1.12-4.92-0.07-5-3.43c-0.35-15.47,5.69-25.97,22.84-26.7c13.36-0.58,26.79-0.9,40.15,1.17
		C720.3,730.07,727.69,740.7,736.33,750.13z"/>
	<path class="st36" d="M622.76,959.15c-17.77-0.34-33.98-3.03-47.65-14.17c-1.6-1.3-4.46-2.38-3.46-4.65
		c0.96-2.15,4.01-1.34,5.84-0.73c22.57,7.51,45.8,4.03,68.77,3.99c5.92-0.01,11.85-3.03,17.75-4.76c1.58-0.46,3.11-0.96,4.19,0.65
		c1.2,1.8-0.37,2.89-1.42,3.93c-8.57,8.54-19.11,13.04-30.95,14.47C631.21,958.43,626.65,959.87,622.76,959.15z"/>
	<path class="st37" d="M573.22,933.51c-1.24-0.03-2.48-0.06-3.72-0.09c0.05-2.43,2.33-2.65,3.7-3.78
		c21.76-9.9,44.52-11.03,67.84-8.01c9.14,1.18,17.74,4.18,26.43,6.92c5.95,1.88,12.01,3.19,18.18,4.05
		c14.05,1.94,25.34-4.76,31.53-18.68c2.46-5.53,4.08-11.33,4.97-17.31c0.84-5.66,2.8-10.89,5.74-15.76
		c0.97-1.61,1.69-3.62,4.12-3.61c0.93,1.22,0.75,2.43-0.02,3.63c-3.95,6.57-5.3,13.96-6.94,21.3c-1.97,8.86-4.51,17.4-10.94,24.46
		c-9.31,10.22-20.85,11.75-33.49,9.71c-12.02-1.95-23.06-7.5-35.02-9.78c-3.05-0.58-6.03-1.38-9.15-1.3
		c-15.27,0.39-30.7-1.87-45.73,2.35C584.8,929.27,579.05,931.53,573.22,933.51z"/>
	<path class="st38" d="M581.71,764.36c-1.52,3.45-4.36,3.68-6.99,4.11c-9.64,1.58-10.3,2.23-11.1,12.07
		c-0.37,4.54-1.8,8.78-3.92,12.73c-4.02,7.49-13.11,9.92-24.34,6.75c-8.05-2.27-12.16-7.57-12.64-16.76
		c-0.18-3.48-0.01-7.01,0.33-10.48c0.45-4.66-1.47-7-6.13-7.16c-1.56-0.05-3.17,0.08-4.65-0.28c-2-0.49-5.42,1.56-5.77-1.6
		c-0.32-2.92,3.4-2.49,5.38-3.38c4.79-2.16,9.99-1.4,14.98-1.45C545.26,758.7,563.54,759.98,581.71,764.36z"/>
	<path class="st39" d="M731.95,765.36c-5.77,0.38-10.4,0.71-15.03,0.99c-4.71,0.29-7.49,2.14-7.67,7.45
		c-0.17,5.21-0.45,10.46-1.68,15.61c-1.53,6.39-5.29,10.1-11.73,11.36c-4.69,0.92-9.34,0.73-13.88-0.42
		c-4.51-1.15-7.85-3.84-9.74-8.38c-1.54-3.7-2.43-7.53-2.08-11.37c0.66-7.12-2.14-11.02-9.26-11.88c-1.55-0.19-3.24-0.58-3.33-2.6
		c-0.1-2.14,1.68-2.41,3.19-2.66c19.15-3.18,38.33-6.65,57.78-2.9C722.78,761.39,728.02,759.82,731.95,765.36z"/>
	<path class="st40" d="M657.25,1030.44c-19.57,9.24-39.87,9-60.38,4.26c-20.32-4.69-38.11-14.19-53.08-28.83
		c-2.61-2.56-5.2-5.07-6.6-9.02c17.43,11.84,36.91,18.19,57.04,22.89c0.42,1.76,4.29-0.52,3.34,2.85c-5.8,2.23-10.92-1.2-16.28-2.17
		c-9.47-1.71-18.24-5.74-27.36-10.24c8.94,6.23,17.49,11.93,27.19,15.64c16.4,6.26,33.37,8.97,50.82,7.46
		c5.7-0.49,11.45-1.84,17.03-3.54c2.93-0.89,5.72-2.53,8.97-2.11C659.6,1029.04,658.12,1029.67,657.25,1030.44z"/>
	<path class="st41" d="M657.25,1030.44c0.4-0.75,0.8-1.5,1.2-2.24c0.49-1.38,1.59-2.23,2.8-2.81c8.58-4.12,16.64-9.09,21.8-12.88
		c-9.75,6.07-23.16,10.59-37.79,11.41c-13.86,1.79-27.7,1.63-41.55,0.08c-2.19,0-4.39,0.03-5.99-1.87c-0.82-1.3-2.97-0.65-3.49-2.39
		c12.14,1.44,24.3,2.54,36.56,2.22c24.96-0.66,47.71-7.64,67.51-23.21c1.66-1.3,3.08-2.9,4.62-4.37c1.02-0.79,2.1-2.21,3.4-1.01
		c1.38,1.27,0.04,2.43-0.85,3.39c-2.09,2.25-4.43,4.27-6.28,6.74c-11.78,10.01-23.48,20.15-38.11,26.01
		C659.82,1030.01,658.7,1030.84,657.25,1030.44z"/>
	<path class="st42" d="M713.26,890.21c0.84,0.06,1.67,0.12,2.51,0.18c0.32,2.77-1.59,4.35-3.43,5.66
		c-6.89,4.91-14.3,7.19-22.97,5.35c-7.71-1.63-14.74-4.68-21.66-8.21c-8.5-4.34-17.01-8.74-27.11-6.32
		c-0.92,0.22-1.92-0.18-2.79-0.65c-1.49-1.43-0.28-2.17,0.76-2.95c8.1-2.61,15.7-0.94,23.11,2.64c5.77,2.79,11.49,5.71,17.42,8.11
		C691.1,898.89,702.83,899.94,713.26,890.21z"/>
	<path class="st43" d="M660.61,870.8c0.39-9.06-3.64-16.17-10.29-23.44c7.79-0.09,10.05,4.92,12.07,8.57
		C664.96,860.57,665.56,866.16,660.61,870.8z"/>
	<path class="st43" d="M638.57,883.28c-0.39,0.77-0.79,1.54-1.18,2.31c-1.29,2.89-4.08,3.14-6.64,3.79
		c-5.66,0.32-11.33,0.19-16.99,0.12c-5.08-0.56-9.8-2.2-14.16-4.88c-3.97-3.55-9.03-0.75-13.35-2.25c-0.16-0.17-0.31-0.34-0.46-0.51
		c4.99-3.28,10.26-2.79,15.44-0.78c7.64,2.96,15.04,6.32,23.64,5.94C629.86,886.79,633.72,883.4,638.57,883.28z"/>
	<path class="st44" d="M699.18,1003.49c0.96-3.92,4.95-5.59,6.68-9c-0.95-1.27-2.01,0.44-2.96-0.12c0.62-2.41,2.7-3.68,4.36-5.17
		c1.21-1.08,2.34-4.02,4.44-1.99c1.6,1.55,0.03,3.79-1.14,5.15C707.11,996.39,703.84,1000.66,699.18,1003.49z"/>
	<path class="st11" d="M688.63,610.95c0.56,0.06,1.14,0.06,1.69,0.2c1.31,0.32,3.65-0.82,3.67,1.36c0.02,2.19-2.3,2.11-3.98,2.03
		c-3.14-0.14-1.73-2.08-1.32-3.6C688.69,610.94,688.63,610.95,688.63,610.95z"/>
	<path d="M590.34,851.12c0.32-0.53,0.49-1.18,0.9-1.42c10.37-6.03,12.02-16.1,11.98-26.67c-0.07-16.88-0.25-33.75-4.14-50.38
		c-2.79-11.94-9.15-19.41-21.71-21.74c-19.17-3.55-38.35-6.03-57.87-4.61c-1.16,0.08-2.33,0.14-3.5,0.13
		c-1.12-0.01-2.47,0.41-3.22-0.73c-1-1.51,0.27-2.55,1.11-3.54c5.94-6.97,12.82-12.3,22.47-12.86c14.2-0.83,28.4-0.16,42.59,0.09
		c12.27,0.22,18.47,8.56,23.39,18.18c5.15,10.09,6.12,21.26,6.58,32.24c0.76,18.45,0.62,36.93-1.62,55.32
		C605.9,846.56,599.9,852.31,590.34,851.12z"/>
	<path d="M600.06,883.1c3.86,2.63,8.2,4,12.73,4.9c6.27,1.84,12.54,1.52,18.8-0.02c1.93-0.8,3.86-1.59,5.79-2.39
		c16.44-4.55,28.72,6.25,42.54,11.47c13.33,5.03,25.74,5.48,35.85-6.66c6.48-6.66,16.05-15.27,21.63-24.13
		c0.74,4.34-5.51,8.19-5.48,11c-7.03,8.26-7.59,18.84-10.21,28.66c-5.55,20.79-17.31,30.77-38.62,28.07
		c-10.29-1.3-19.86-5.11-29.7-7.96c-13.86-4.02-27.92-4.24-42.14-3.77c-13.33,0.44-25.95,3.51-38.02,9.05
		c-6.63,0.97-13.25,2.14-19.98,2.22l0,0c-5.39-1.47-11.1-0.48-16.45-2.2c-12.63-4.32-17.72-15.32-21.5-26.4
		c-3.14-9.22-5.22-18.78-10.03-27.4c-0.71-2.26-0.34-3.44,2.33-2.36c4.48,4.5,8.7,9.31,13.48,13.46c11.26,9.77,24,12.99,38.15,6.93
		c9.02-3.86,17.85-8.15,26.76-12.25C590.67,881.61,595.36,881.91,600.06,883.1z"/>
	<path class="st45" d="M507.62,875.15c-1.6-0.02-2.08,1.06-2.33,2.36c-5.46-6.73-8.78-14.66-12.36-22.52
		C498.35,861.36,504.1,867.42,507.62,875.15z"/>
	<path class="st46" d="M553.26,933.52c6.5-2.14,13.18-2.72,19.98-2.22c-1.24,0.71-2.49,1.42-3.74,2.12
		C564.09,932.73,558.69,936.1,553.26,933.52z"/>
	<path class="st46" d="M536.81,931.32c5.61-0.24,11.18-0.08,16.45,2.2C547.69,933.45,541.89,935.07,536.81,931.32z"/>
	<path class="st42" d="M600.06,883.1c-4.68,0.06-9.37,0.12-14.05,0.19c-0.01-0.33,0.06-0.64,0.24-0.92
		C590.94,881.04,595.61,879.89,600.06,883.1z"/>
	<path d="M729.05,745.66c-19.36-1.69-38.26,0.13-57.04,2.56c-7.52,0.98-15.33,2.18-22.39,5.55c-3.59,1.71-3.99-0.03-3.82-2.97
		c0.85-14.79,7.45-21.36,22.2-21.72c12.8-0.31,25.63-0.39,38.34,1.21C716.29,731.55,722.88,738.38,729.05,745.66z"/>
	<path class="st47" d="M577.25,942.43c29.05,6.42,57.39,6.83,85.98-0.14C652.22,960.24,592.85,961.25,577.25,942.43z"/>
	<path d="M512.26,762.01c20.55-1.2,40.74-0.46,60.9,2.88c0.18,1.15-0.97,1.54-1.77,1.64c-8.84,1.19-10.25,7.96-10.86,14.9
		c-1.36,15.4-14.73,22.83-28.25,15.28c-4.52-2.53-6.67-6.98-7.06-12.03c-0.3-3.86-0.05-7.77,0.01-11.66
		c0.11-7.2-1.71-9.25-8.87-10.04C515.07,762.85,513.62,763.43,512.26,762.01z"/>
	<path d="M718.36,762.62c-2.07,0.93-2.72,1.39-3.43,1.52c-6.85,1.25-8.96,5.51-8.67,12.14c0.2,4.72,0.28,9.41-1.58,14.26
		c-2,5.24-5.51,7.57-10.17,8.25c-11.1,1.61-19.85-1.57-21.01-11.48c-0.47-4.03-1.38-8.03-1.67-12.07c-0.32-4.54-2.07-7.36-6.93-7.63
		c-0.9-0.05-2.18-0.01-2.3-1.23c-0.15-1.52,1.15-1.94,2.32-1.99C682.22,763.51,699.41,759.65,718.36,762.62z"/>
	<path class="st48" d="M647.01,1022.5c7.38-0.11,14.13-2.93,21.09-4.88c7.03-1.97,13.26-5.81,20.05-8.37
		c-8.68,8.3-18.8,14.25-29.72,18.95c-39.67,16.93-90.31,0.58-108.1-20.96c7.72,3.2,14.9,6.8,22.46,9.13
		c8.12,2.5,16.33,5.03,24.91,5.77c1.85,0.11,3.71,0.22,5.56,0.33C617.85,1025.09,632.43,1024.78,647.01,1022.5z"/>
	<path class="st40" d="M647.01,1022.5c-1.31,1.68-3.1,2.04-5.13,2.03c-11.16-0.05-22.33-0.05-33.49,0
		c-2.05,0.01-3.81-0.39-5.12-2.06C617.85,1024.09,632.43,1023.65,647.01,1022.5z"/>
	<path class="st42" d="M631.59,887.97c-6.26,3.36-12.53,3.65-18.8,0.02C619.06,887.99,625.32,887.98,631.59,887.97z"/>
</g>
<g id="Layer_2">
	<path class="st11" d="M632.71,656.7c-3.38-5.13-10.49-1.69-14.25-6.67c-1.82-0.91-1.9-4.57,0.5-6.11
		c3.77-0.68,9.15,1.01,15.14,3.59c9.41,1.16,18.18,2.83,25.7,5.53c13.28,1.04,27.48,2.02,33.51,3.55
		c9.61-0.14,19.52,2.35,29.57,6.04c0,0,13.68,1.04,25.43,5.53c4.85,1.28,6.03,2.63,6.52,4.01c-3.52,6.14-66.95-14.04-68.39-8.76
		c0.24,7.68,26.82,12.53,44.25,34.14c4.8,4.46,18.33,21,30.72,35.95c9.38,5.52,11.45,14.14,17.93,24.8
		c5.27,7.07,6.81,18.81,7.04,18.83c0,0,0,9.34-4.59,24.55c0.88-3.72-5.11-26.29-6.1-26.74c-0.14-1.88-13.19-26.85-13.96-26.62
		c-4.28-6.54-9.25-12.9-14.63-19.17l-23.2-24.07c-5.86-5.9-14.52-12.43-23.52-19.03c-9.46-7.07-27.54-13.72-33.45-17.42
		C664.85,667.91,634.72,657.4,632.71,656.7z"/>
</g>
</svg>
