<svg id="Layer_1" data-name="Layer 1" xmlns="http://www.w3.org/2000/svg" viewBox="0 0 1280 1280"><defs><style>.cls-1{fill:#fff;}</style></defs><path class="cls-1" d="M1280,1280H0V0H1280ZM770.74,1131.21a65.06,65.06,0,0,0,9.27-.88c14.51-3.07,29.06-6,43.41-9.72,18.33-4.73,36.27-10.71,52.87-20.1,6.39-3.61,6.92-5.53,1.2-10.16-10.9-8.82-21.6-18.22-33.65-25.21-21.73-12.61-43.91-24.68-66.82-35-17.63-7.91-28.09-37-21.86-52.45a268.08,268.08,0,0,1,10.91-24.56c19.53-37,32.84-76.07,41.2-117.14,6.41-31.53,2.88-26.34,28-44.07a208.66,208.66,0,0,0,63.43-71c22.78-41.64,33.84-86.11,30.4-134a247,247,0,0,0-28.14-98.27c-5.87-11.19-13-21.79-20.3-32.15-5.2-7.4-5.65-14.17-.81-21.61,3-4.57,5.63-9.35,8.62-13.91,21.46-32.78,32.85-68.88,35-107.84,1.26-22.41,1.55-44.87,2.5-67.31.94-22.26,3.1-44.34,9-66,2.2-8,2.65-16.54,3.25-24.88.65-9-3.39-16.38-11.51-20s-16.67-3.58-24.39,2.21c-7.34,5.51-14.8,10.83-22.19,16.25-6.84,5-14.27,7.85-22.95,7.06a178.7,178.7,0,0,0-19.87-1.12c-12.63.28-25.31.54-37.86,1.86-13,1.36-25.81,4-38.72,6-23.13,3.54-46.36,6.44-69.36,10.65A163.52,163.52,0,0,0,643.05,195c-11.11,6-17,15.29-16.06,27.65,1,13.55,1.71,27.58,5.78,40.37,9,28.19,19.86,55.78,30.18,83.54,4.62,12.41,9.89,24.58,14.59,37,2.14,5.63,1,7.44-4.94,8.38-4.61.74-9.3,1.09-14,1.39-18.3,1.18-36.76,1.18-54.9,3.63-34.45,4.64-68.5,11.74-101.06,24.32-37,14.31-73.27,30-101.11,60.16-19.92,21.55-40.6,42.3-47.55,72.39-3.57,15.43-5.64,31-1,46.22,4.26,14.11,10.24,27.77,16.23,41.29,8.43,19.06,19,37.31,26.07,56.83,10.61,29.14,19.24,59,34.82,86.09a130.54,130.54,0,0,1,15.84,44.93c1.83,11.34,4.44,22.59,7.36,33.71a416.51,416.51,0,0,0,40.9,100.55c2.21,3.88,4,8,5.91,12.05,2.92,6.21,3.14,12.37-.32,18.51-8.3,14.69-14.9,30.62-32,38.12a222.57,222.57,0,0,0-24.85,13c-9.53,5.7-18.84,11.81-27.85,18.29-7.12,5.12-6.86,8,.42,12.49,6,3.69,12.06,7.21,18.29,10.44,36.29,18.8,74.71,31.4,114.79,39.08,6.14,1.18,12.3,2.22,18.45,3.33-48.82-15.64-97.78-30.54-143.65-57.79,3.92-3,6.32-5.61,9.29-7,12.7-6,25.44-11.89,38.41-17.24,10.26-4.24,17.89-10.82,22.54-20.93,2.36-5.14,4.92-10.21,7.7-15.13.85-1.51,2.82-3.46,4.13-3.35s3.07,2.17,3.95,3.75c1.21,2.19,1.63,4.8,2.66,7.11,4.47,9.94,8.5,20.13,13.66,29.7,13.84,25.64,33.26,47.05,52.92,68.26,4.3,4.63,10.49,8.76,7.42,17.67,13,1.45,25.43,2.67,37.77,4.25,7.83,1,13.15-1.64,16.19-9.08.86-2.11,2.55-3.91,4-5.75,17.54-22.45,35.26-44.74,52.6-67.34,11.16-14.56,21.57-29.63,25.35-48.17.41-2,2-3.78,3-5.66,1.92,1.39,4.57,2.38,5.63,4.25,3.62,6.45,6.49,13.32,10,19.82,3.81,7,5.64,14.72,15.87,17.31,22,5.55,42.39,15.74,62,27.1,12.63,7.32,24.87,15.35,36.93,23.58,6,4.13,5.32,7.27-1.52,10.18-3.76,1.61-7.56,3.19-11.46,4.42C818.19,1116.39,793.86,1124,770.74,1131.21Z"/><path d="M770.74,1131.21c23.12-7.24,47.45-14.82,71.75-22.51,3.9-1.23,7.7-2.81,11.46-4.42,6.84-2.91,7.57-6,1.52-10.18-12.06-8.23-24.3-16.26-36.93-23.58-19.61-11.36-40-21.55-62-27.1-10.23-2.59-12.06-10.32-15.87-17.31-3.54-6.5-6.41-13.37-10-19.82-1.06-1.87-3.71-2.86-5.63-4.25-1,1.88-2.62,3.65-3,5.66-3.78,18.54-14.19,33.61-25.35,48.17-17.34,22.6-35.06,44.89-52.6,67.34-1.44,1.84-3.13,3.64-4,5.75-3,7.44-8.36,10.08-16.19,9.08-12.34-1.58-24.72-2.8-37.77-4.25,3.07-8.91-3.12-13-7.42-17.67-19.66-21.21-39.08-42.62-52.92-68.26-5.16-9.57-9.19-19.76-13.66-29.7-1-2.31-1.45-4.92-2.66-7.11-.88-1.58-2.51-3.64-3.95-3.75s-3.28,1.84-4.13,3.35c-2.78,4.92-5.34,10-7.7,15.13-4.65,10.11-12.28,16.69-22.54,20.93-13,5.35-25.71,11.27-38.41,17.24-3,1.4-5.37,4-9.29,7,45.87,27.25,94.83,42.15,143.65,57.79-6.15-1.11-12.31-2.15-18.45-3.33-40.08-7.68-78.5-20.28-114.79-39.08-6.23-3.23-12.33-6.75-18.29-10.44-7.28-4.51-7.54-7.37-.42-12.49,9-6.48,18.32-12.59,27.85-18.29a222.57,222.57,0,0,1,24.85-13c17.08-7.5,23.68-23.43,32-38.12,3.46-6.14,3.24-12.3.32-18.51-1.91-4.05-3.7-8.17-5.91-12.05a416.51,416.51,0,0,1-40.9-100.55c-2.92-11.12-5.53-22.37-7.36-33.71a130.54,130.54,0,0,0-15.84-44.93c-15.58-27.05-24.21-57-34.82-86.09-7.1-19.52-17.64-37.77-26.07-56.83-6-13.52-12-27.18-16.23-41.29-4.6-15.21-2.53-30.79,1-46.22,6.95-30.09,27.63-50.84,47.55-72.39,27.84-30.11,64.07-45.85,101.11-60.16,32.56-12.58,66.61-19.68,101.06-24.32,18.14-2.45,36.6-2.45,54.9-3.63,4.67-.3,9.36-.65,14-1.39,5.91-.94,7.08-2.75,4.94-8.38-4.7-12.39-10-24.56-14.59-37-10.32-27.76-21.22-55.35-30.18-83.54-4.07-12.79-4.74-26.82-5.78-40.37-.94-12.36,5-21.66,16.06-27.65a163.52,163.52,0,0,1,48.37-17.06c23-4.21,46.23-7.11,69.36-10.65,12.91-2,25.74-4.65,38.72-6,12.55-1.32,25.23-1.58,37.86-1.86a178.7,178.7,0,0,1,19.87,1.12c8.68.79,16.11-2.06,22.95-7.06,7.39-5.42,14.85-10.74,22.19-16.25,7.72-5.79,16.27-5.87,24.39-2.21s12.16,11,11.51,20c-.6,8.34-1,16.89-3.25,24.88-5.95,21.65-8.11,43.73-9,66-1,22.44-1.24,44.9-2.5,67.31-2.19,39-13.58,75.06-35,107.84-3,4.56-5.65,9.34-8.62,13.91-4.84,7.44-4.39,14.21.81,21.61,7.29,10.36,14.43,21,20.3,32.15A247,247,0,0,1,929.06,587c3.44,47.86-7.62,92.33-30.4,134a208.66,208.66,0,0,1-63.43,71c-25.08,17.73-21.55,12.54-28,44.07-8.36,41.07-21.67,80.11-41.2,117.14a268.08,268.08,0,0,0-10.91,24.56c-6.23,15.45,4.23,44.54,21.86,52.45,22.91,10.29,45.09,22.36,66.82,35,12,7,22.75,16.39,33.65,25.21,5.72,4.63,5.19,6.55-1.2,10.16-16.6,9.39-34.54,15.37-52.87,20.1-14.35,3.7-28.9,6.65-43.41,9.72A65.06,65.06,0,0,1,770.74,1131.21ZM688.16,664l-1.56,2.56c1.38,1.6,2.51,3.53,4.17,4.72,4.75,3.43,9.87,6.33,14.55,9.83,32.73,24.48,58.94,54.43,76.45,91.63,3.83,8.13,6.52,9.19,13.94,4,8.29-5.79,16-12.44,23.78-18.88,6-5,11.18-11.18,17.78-15.05,20-11.76,32-28.16,32.69-51.82.26-9.54,3.63-17.77,8.62-25.7,5.43-8.65,11.11-18.16,9.7-28.31-1.52-11,2.69-17.17,10.51-23.14,5.12-3.92,6.73-9.78,3.8-15.78q-6.51-13.38-13.93-26.31c-3.28-5.73-7.64-10.86-10.77-16.66-1.29-2.37-1-5.82-.79-8.74.49-6.72,3.09-13.82,1.69-20.05a161,161,0,0,0-11.41-32.47c-6.9-14.77-18.11-24.8-35.38-26.11a31.8,31.8,0,0,1-5-1.31c1.61-2.79,2.78-5,4.09-7.07,12.12-19.33,25.38-38,36.17-58.1,20.09-37.37,27-78.2,28.34-120.27,1-31.35,5.27-62.18,16.2-91.86,4.17-11.32,7.46-23,10.86-34.56,1.55-5.26-.23-9.66-5.22-12.37s-9.23-1.35-13.46,2c-7,5.61-14.31,10.83-21.39,16.34-13.34,10.38-27.73,13.7-44.51,9.3-13.72-3.59-27.92-2.54-41.83.53-12.57,2.76-25,6.26-37.73,8-17,2.4-34.21,3.2-51.28,5.14-19.46,2.22-38.47,6.41-56.28,15-7.07,3.41-11.71,8.38-13.84,16.28-3.35,12.47-.47,24.47,1.71,36.49,4.33,23.87,13.9,46.08,25.16,67.19,20.56,38.53,42.65,76.25,64.44,114.12,1.67,2.89,5.74,5.09,9.15,6.15,7.06,2.2,14.49,3.17,21.63,5.13,3.47.95,6.64,3,9.94,4.55-1.12,1.29-1.71,1.48-2.24,1.39a44.44,44.44,0,0,1-4.59-.94,339.12,339.12,0,0,0-90.88-12.11c-6.12,0-13-2.14-17.94,4.09-.51.65-2.22.48-3.37.47a572.28,572.28,0,0,0-90.56,5.56c-22.38,3.19-44.72,7.05-66.77,11.95-15,3.33-29.54,8.67-44.11,13.64a186.81,186.81,0,0,0-59,32.86c-13.2,10.9-20.36,26.13-25,42.2-4.18,14.42-6.64,29-4.1,44.47,2.76,16.74,10.3,31.41,17,46.52,9.15,20.68,18.93,41.09,27.46,62,8.66,21.27,15.9,43.12,24.25,64.53,2.88,7.39,7.1,14.29,11.05,21.22.9,1.57,3.26,2.31,4.94,3.43.82-1.61,2-3.14,2.39-4.85.94-4.38,1.47-8.85,2.21-13.28,3.32-20,6.51-40,10.06-60,1.55-8.65,5.9-16.09,12-22.4,11.14-11.48,22.17-23.07,33.52-34.33,6.9-6.84,13.36-15,21.68-19.4,34.08-18.11,68.4-35.85,104.7-49.3,5.76-2.14,11.6-4.05,16.74-5.83-21.3,14.76-42.95,29.72-64.52,44.79-2,1.4-3.51,3.47-5.24,5.23l.88,1.74c2.83.14,5.72.68,8.49.33,7.16-.88,14.33-1.89,21.39-3.33,17.76-3.65,35.42-7.76,53.2-11.32,27.91-5.58,55.8-11.42,83.87-16.1,22.37-3.73,45.06-5,67.63-1.22,10.81,1.79,21.33,5,30.12,12.06,5.82,4.68,10.43,10.14,11.31,19.67-3.95-1.65-6.78-2.62-9.42-4a174.72,174.72,0,0,0-83.64-19.07c-32.78.67-64.66,7.45-96.33,15.38-16.45,4.11-33,7.86-49.47,11.91-2.85.7-5.52,2.12-8.88,3.45,1.42,1.21,1.8,1.77,2.29,1.92,19.58,6,39.07,12.16,59.79,13.57,28.1,1.91,55.85,6.19,82.25,16.71,7.51,3,14.84,6.47,22.25,9.73-.16.33-.32.65-.49,1ZM456.79,805.71c2.29,15.06,3.72,29.25,6.71,43.11a428.15,428.15,0,0,0,34.21,98.67c7.12,14.53,15.27,28.65,17.82,44.9,2.64,16.84,8.92,32.29,17.12,47,15.87,28.49,38.24,52.13,58.15,77.61,6.47,8.28,14.3,13.23,25,14.4,6.62.73,11.6-.2,16.07-5.49,12.46-14.75,25.65-28.9,37.85-43.85,14.41-17.66,28.61-35.53,41.9-54,8.27-11.52,12-25,7.9-39.36-1.58-5.51-.55-9.95,2.15-14.92,9.12-16.76,18.58-33.42,26.33-50.83,14.74-33.11,24-68,29.8-103.73,1.84-11.24,2.44-23-1.84-34.15-5.16-13.5-10.34-27-19.56-38.38-7.23-8.94-14.29-18.07-22.2-26.38-14.55-15.29-30.08-29.42-49-39.49-22.25-11.84-46.08-19.26-70.33-25.16-22.33-5.44-45.06-9.27-67.56-14.06-9.35-2-16.83.87-23.38,7.32-10.43,10.26-20.64,20.76-31.38,30.68-14,12.91-23,28-25.23,47.31C464.25,753.42,460.29,779.84,456.79,805.71Z"/><path class="cls-1" d="M688.16,664l86,18.86c.17-.33.33-.65.49-1-7.41-3.26-14.74-6.73-22.25-9.73-26.4-10.52-54.15-14.8-82.25-16.71-20.72-1.41-40.21-7.53-59.79-13.57-.49-.15-.87-.71-2.29-1.92,3.36-1.33,6-2.75,8.88-3.45,16.47-4,33-7.8,49.47-11.91,31.67-7.93,63.55-14.71,96.33-15.38a174.72,174.72,0,0,1,83.64,19.07c2.64,1.34,5.47,2.31,9.42,4-.88-9.53-5.49-15-11.31-19.67-8.79-7.07-19.31-10.27-30.12-12.06-22.57-3.74-45.26-2.51-67.63,1.22-28.07,4.68-56,10.52-83.87,16.1-17.78,3.56-35.44,7.67-53.2,11.32-7.06,1.44-14.23,2.45-21.39,3.33-2.77.35-5.66-.19-8.49-.33l-.88-1.74c1.73-1.76,3.25-3.83,5.24-5.23,21.57-15.07,43.22-30,64.52-44.79-5.14,1.78-11,3.69-16.74,5.83-36.3,13.45-70.62,31.19-104.7,49.3-8.32,4.42-14.78,12.56-21.68,19.4-11.35,11.26-22.38,22.85-33.52,34.33-6.13,6.31-10.48,13.75-12,22.4-3.55,20-6.74,40-10.06,60-.74,4.43-1.27,8.9-2.21,13.28-.36,1.71-1.57,3.24-2.39,4.85-1.68-1.12-4-1.86-4.94-3.43-3.95-6.93-8.17-13.83-11.05-21.22-8.35-21.41-15.59-43.26-24.25-64.53-8.53-20.93-18.31-41.34-27.46-62-6.69-15.11-14.23-29.78-17-46.52-2.54-15.42-.08-30,4.1-44.47,4.67-16.07,11.83-31.3,25-42.2a186.81,186.81,0,0,1,59-32.86c14.57-5,29.13-10.31,44.11-13.64,22.05-4.9,44.39-8.76,66.77-11.95a572.28,572.28,0,0,1,90.56-5.56c1.15,0,2.86.18,3.37-.47,4.92-6.23,11.82-4.08,17.94-4.09a339.12,339.12,0,0,1,90.88,12.11,44.44,44.44,0,0,0,4.59.94c.53.09,1.12-.1,2.24-1.39-3.3-1.55-6.47-3.6-9.94-4.55-7.14-2-14.57-2.93-21.63-5.13-3.41-1.06-7.48-3.26-9.15-6.15-21.79-37.87-43.88-75.59-64.44-114.12-11.26-21.11-20.83-43.32-25.16-67.19-2.18-12-5.06-24-1.71-36.49,2.13-7.9,6.77-12.87,13.84-16.28,17.81-8.59,36.82-12.78,56.28-15,17.07-1.94,34.28-2.74,51.28-5.14,12.7-1.78,25.16-5.28,37.73-8,13.91-3.07,28.11-4.12,41.83-.53,16.78,4.4,31.17,1.08,44.51-9.3C889.7,155,897,149.82,904,144.21c4.23-3.38,8.5-4.73,13.46-2s6.77,7.11,5.22,12.37c-3.4,11.59-6.69,23.24-10.86,34.56-10.93,29.68-15.22,60.51-16.2,91.86-1.31,42.07-8.25,82.9-28.34,120.27-10.79,20.06-24,38.77-36.17,58.1-1.31,2.09-2.48,4.28-4.09,7.07a31.8,31.8,0,0,0,5,1.31c17.27,1.31,28.48,11.34,35.38,26.11a161,161,0,0,1,11.41,32.47c1.4,6.23-1.2,13.33-1.69,20.05-.21,2.92-.5,6.37.79,8.74,3.13,5.8,7.49,10.93,10.77,16.66q7.4,12.91,13.93,26.31c2.93,6,1.32,11.86-3.8,15.78-7.82,6-12,12.19-10.51,23.14,1.41,10.15-4.27,19.66-9.7,28.31-5,7.93-8.36,16.16-8.62,25.7-.65,23.66-12.65,40.06-32.69,51.82-6.6,3.87-11.78,10.1-17.78,15.05C811.68,764.3,804,771,795.71,776.74c-7.42,5.18-10.11,4.12-13.94-4-17.51-37.2-43.72-67.15-76.45-91.63-4.68-3.5-9.8-6.4-14.55-9.83-1.66-1.19-2.79-3.12-4.17-4.72ZM837.83,534.83c.21-.91.42-1.83.64-2.74-9.22-2.73-18.27-6.62-27.68-8a198.33,198.33,0,0,0-84.11,5.44c-23.19,6.71-46,14.68-68.88,22.45-8.76,3-17.19,6.91-25.77,10.41.93,1.21,1.52,1.5,2,1.38,6.4-1.69,12.93-3,19.16-5.25a575.2,575.2,0,0,1,104.4-25.78,220.66,220.66,0,0,1,71.15.76C831.76,534,834.8,534.4,837.83,534.83ZM769.42,657.92c27,10.41,45.7,29.08,63.73,50.22C836.37,684.12,803.52,657.69,769.42,657.92ZM813.89,497.1c-13-12.7-75.28-15.9-114.78-2.48C737.12,490.47,775,492.52,813.89,497.1Zm27.93,74.22c-24.68-14.07-51.66-16.69-77.4-15.39ZM750.37,400.87l58.78,14.33C792.85,398.58,772.05,397.88,750.37,400.87Z"/><path class="cls-1" d="M456.79,805.71c3.5-25.87,7.46-52.29,10.52-78.82,2.23-19.31,11.24-34.4,25.23-47.31,10.74-9.92,20.95-20.42,31.38-30.68,6.55-6.45,14-9.32,23.38-7.32,22.5,4.79,45.23,8.62,67.56,14.06,24.25,5.9,48.08,13.32,70.33,25.16,18.91,10.07,34.44,24.2,49,39.49,7.91,8.31,15,17.44,22.2,26.38,9.22,11.38,14.4,24.88,19.56,38.38,4.28,11.2,3.68,22.91,1.84,34.15C772,854.91,762.72,889.82,748,922.93c-7.75,17.41-17.21,34.07-26.33,50.83-2.7,5-3.73,9.41-2.15,14.92,4.12,14.38.37,27.84-7.9,39.36-13.29,18.51-27.49,36.38-41.9,54-12.2,15-25.39,29.1-37.85,43.85-4.47,5.29-9.45,6.22-16.07,5.49-10.68-1.17-18.51-6.12-25-14.4-19.91-25.48-42.28-49.12-58.15-77.61-8.2-14.73-14.48-30.18-17.12-47-2.55-16.25-10.7-30.37-17.82-44.9a428.15,428.15,0,0,1-34.21-98.67C460.51,835,459.08,820.77,456.79,805.71Zm33.22,51a11,11,0,0,0,.3,2.38c8.67,16.5,18.43,32.29,23,50.91,3,12.28,10.61,23.19,24.51,25.86,12.33,2.36,25,2.54,36.91-2.32,24.44-9.92,49.44-9.52,74.67-4.29,7,1.47,13.77,4.26,20.73,6.11,21.39,5.68,43.35,5,50.31-27.4,2.92-13.64,8.41-25.83,15.14-37.74,1.63-2.89,2.75-6.06,3.83-8.47-8,9.73-15.92,20-24.5,29.8-9.69,11-22,12.7-35.2,7.57-7.26-2.81-14.22-6.4-21.31-9.65-7.72-3.54-15.5-5.13-23.62-1.11-9.52,4.72-19.11,4.4-28.87.43-7-2.86-14.18-6.15-22-2.81-6.44,2.76-12.76,5.8-19.13,8.73-10.62,4.87-21.6,9.68-33,3.84a74,74,0,0,1-19.61-14.24C504.21,876.08,497.7,866.49,490,856.73ZM506.65,750c3,0,4.84.07,6.68,0,22.31-.89,44.47-.19,66.23,5.6,6.12,1.63,10.64,4.94,13.06,10.68,1.72,4.1,3.76,8.4,4,12.72,1.18,18.46,2,37,2.43,55.46.16,6.3-2.65,11.63-8.21,15.31-2,1.36-3.57,3.47-6.14,6,14.59-.89,20.19-4.53,20.92-17,1.33-22.34,1.43-44.79,1.05-67.18-.19-11-3.57-21.8-11.13-30.21-3.72-4.14-9-9.24-13.87-9.55a375.7,375.7,0,0,0-53.05,0C518.88,732.68,512.33,740.69,506.65,750Zm224.5-.19c-6.63-7.73-13-16.07-22.95-17.39a260.34,260.34,0,0,0-44.82-2.15c-14.19.57-20.17,8.23-20.85,22.54-.27,5.54.8,6.33,5.92,4.54,2.57-.89,5.15-2.09,7.81-2.38,16.62-1.84,33.25-3.72,49.91-5C714.2,749.32,722.33,749.85,731.15,749.85ZM698.86,1003c-53.06,35-106.31,27.93-160,1.27,10.19,17.33,46.17,35,77.22,36.15C649.68,1041.75,676.35,1026.27,698.86,1003ZM507.54,764.07l-.23,1.8c2.75.53,5.48,1.2,8.26,1.54,4.52.56,6.48,2.9,6.18,7.49a111.65,111.65,0,0,0-.2,12.27c.25,5.63,2.52,10.86,7.76,12.89,14.48,5.59,26.84,4.54,30.39-14.18a23.74,23.74,0,0,0,.65-5.21c-.25-6.67,3.71-9.31,9.5-10.47a53.19,53.19,0,0,0,5.56-1.72l-.26-1.89C552.69,763.76,530.29,759.26,507.54,764.07Zm149.1,4.82c1.8.81,2.77,1.51,3.83,1.67,6.34,1,8.87,4.55,8.65,10.94a35.1,35.1,0,0,0,1.61,10.93c2.32,7.79,8.38,11.07,18.58,10.65,9-.38,13.86-4,15.49-12.18A82,82,0,0,0,706,779.28c.52-9.38,2-11,11.54-11.67,2.21-.16,4.43-.26,7.4-.42C716.92,760.18,668.1,761.57,656.64,768.89Zm-82,176.31c15.92,20.09,78.41,18.53,87.51-.61C633.54,952.26,604.86,951.66,574.68,945.2Z"/><path d="M837.83,534.83c-3-.43-6.07-.79-9.09-1.31a220.66,220.66,0,0,0-71.15-.76,575.2,575.2,0,0,0-104.4,25.78c-6.23,2.2-12.76,3.56-19.16,5.25-.48.12-1.07-.17-2-1.38,8.58-3.5,17-7.44,25.77-10.41,22.86-7.77,45.69-15.74,68.88-22.45a198.33,198.33,0,0,1,84.11-5.44c9.41,1.36,18.46,5.25,27.68,8C838.25,533,838,533.92,837.83,534.83Z"/><path d="M769.42,657.92c34.1-.23,67,26.2,63.73,50.22C815.12,687,796.44,668.33,769.42,657.92Z"/><path d="M813.89,497.1c-38.9-4.58-76.77-6.63-114.78-2.48C738.61,481.2,800.91,484.4,813.89,497.1Z"/><path d="M841.82,571.32l-77.4-15.39C790.16,554.63,817.14,557.25,841.82,571.32Z"/><path d="M750.37,400.87c21.68-3,42.48-2.29,58.78,14.33Z"/><path d="M490,856.73c7.69,9.76,14.2,19.35,22.11,27.6a74,74,0,0,0,19.61,14.24c11.44,5.84,22.42,1,33-3.84,6.37-2.93,12.69-6,19.13-8.73,7.8-3.34,15,0,22,2.81,9.76,4,19.35,4.29,28.87-.43,8.12-4,15.9-2.43,23.62,1.11,7.09,3.25,14,6.84,21.31,9.65,13.25,5.13,25.51,3.46,35.2-7.57,8.58-9.77,16.54-20.07,24.5-29.8-1.08,2.41-2.2,5.58-3.83,8.47-6.73,11.91-12.22,24.1-15.14,37.74-7,32.4-28.92,33.08-50.31,27.4-7-1.85-13.7-4.64-20.73-6.11-25.23-5.23-50.23-5.63-74.67,4.29-12,4.86-24.58,4.68-36.91,2.32-13.9-2.67-21.52-13.58-24.51-25.86-4.54-18.62-14.3-34.41-23-50.91A11,11,0,0,1,490,856.73Z"/><path d="M506.65,750c5.68-9.35,12.23-17.36,22-18.13a375.7,375.7,0,0,1,53.05,0c4.85.31,10.15,5.41,13.87,9.55,7.56,8.41,10.94,19.22,11.13,30.21.38,22.39.28,44.84-1.05,67.18-.73,12.49-6.33,16.13-20.92,17,2.57-2.56,4.1-4.67,6.14-6,5.56-3.68,8.37-9,8.21-15.31-.48-18.5-1.25-37-2.43-55.46-.27-4.32-2.31-8.62-4-12.72-2.42-5.74-6.94-9-13.06-10.68-21.76-5.79-43.92-6.49-66.23-5.6C511.49,750.11,509.64,750,506.65,750Z"/><path d="M731.15,749.85c-8.82,0-16.95-.53-25,.11-16.66,1.33-33.29,3.21-49.91,5-2.66.29-5.24,1.49-7.81,2.38-5.12,1.79-6.19,1-5.92-4.54.68-14.31,6.66-22,20.85-22.54a260.34,260.34,0,0,1,44.82,2.15C718.14,733.78,724.52,742.12,731.15,749.85Z"/><path d="M698.86,1003c-22.51,23.25-49.18,38.73-82.75,37.42-31.05-1.2-67-18.82-77.22-36.15C592.55,1031,645.8,1038,698.86,1003Z"/><path d="M507.54,764.07c22.75-4.81,45.15-.31,67.61,2.52l.26,1.89a53.19,53.19,0,0,1-5.56,1.72c-5.79,1.16-9.75,3.8-9.5,10.47a23.74,23.74,0,0,1-.65,5.21c-3.55,18.72-15.91,19.77-30.39,14.18-5.24-2-7.51-7.26-7.76-12.89a111.65,111.65,0,0,1,.2-12.27c.3-4.59-1.66-6.93-6.18-7.49-2.78-.34-5.51-1-8.26-1.54Z"/><path d="M656.64,768.89c11.46-7.32,60.28-8.71,68.28-1.7-3,.16-5.19.26-7.4.42-9.49.67-11,2.29-11.54,11.67a82,82,0,0,1-1.18,11.62c-1.63,8.16-6.47,11.8-15.49,12.18-10.2.42-16.26-2.86-18.58-10.65a35.1,35.1,0,0,1-1.61-10.93c.22-6.39-2.31-10-8.65-10.94C659.41,770.4,658.44,769.7,656.64,768.89Z"/><path d="M574.68,945.2c30.18,6.46,58.86,7.06,87.51-.61C653.09,963.73,590.6,965.29,574.68,945.2Z"/></svg>